<svg width="512" height="512" viewBox="0 0 512 512" fill="none" xmlns="http://www.w3.org/2000/svg">
    <rect width="512" height="512" rx="128" fill="#231942"/>
    <path d="M341.333 170.667C364.267 170.667 384 190.4 384 213.333C384 236.267 364.267 256 341.333 256C318.4 256 298.667 236.267 298.667 213.333C298.667 211.733 298.8 210.133 299.067 208.667L219.733 168.933C209.6 177.867 196.267 183.467 181.333 183.467C158.4 183.467 138.667 163.733 138.667 140.8C138.667 117.867 158.4 98.1333 181.333 98.1333C196.267 98.1333 209.6 103.733 219.733 112.667L299.067 72.9333C298.8 71.4667 298.667 69.8667 298.667 68.2667C298.667 45.3333 318.4 25.6 341.333 25.6C364.267 25.6 384 45.3333 384 68.2667C384 91.2 364.267 110.933 341.333 110.933C326.4 110.933 313.067 105.333 302.933 96.4L223.6 136.133C223.867 137.6 224 139.2 224 140.8C224 142.4 223.867 144 223.6 145.467L302.933 185.2C313.067 176.267 326.4 170.667 341.333 170.667ZM181.333 140.8C181.333 140.8 181.333 140.8 181.333 140.8C181.333 140.8 181.333 140.8 181.333 140.8C181.333 140.8 181.333 140.8 181.333 140.8C181.333 140.8 181.333 140.8 181.333 140.8Z" fill="#E0B1CB"/>
</svg> 