<?xml version="1.0" encoding="UTF-8"?>
<svg version="1.1" xmlns="http://www.w3.org/2000/svg" width="1080" height="1080">
<path d="M0 0 C356.4 0 712.8 0 1080 0 C1080 356.4 1080 712.8 1080 1080 C723.6 1080 367.2 1080 0 1080 C0 723.6 0 367.2 0 0 Z " fill="#FCEFD4" transform="translate(0,0)"/>
<path d="M0 0 C18.48 0 36.96 0 56 0 C56 6.27 56 12.54 56 19 C49.73 19 43.46 19 37 19 C37.495 27.91 37.495 27.91 38 37 C56.15 37.33 74.3 37.66 93 38 C93 31.73 93 25.46 93 19 C105.21 19 117.42 19 130 19 C130 12.73 130 6.46 130 0 C136.27 0 142.54 0 149 0 C149 6.27 149 12.54 149 19 C143.06 19 137.12 19 131 19 C131 24.94 131 30.88 131 37 C142.88 37 154.76 37 167 37 C167 43.27 167 49.54 167 56 C173.27 56 179.54 56 186 56 C186 62.27 186 68.54 186 75 C198.21 75 210.42 75 223 75 C223 80.94 223 86.88 223 93 C229.27 93 235.54 93 242 93 C242 99.27 242 105.54 242 112 C229.79 112 217.58 112 205 112 C205 130.15 205 148.3 205 167 C217.21 167 229.42 167 242 167 C242 185.48 242 203.96 242 223 C247.94 223 253.88 223 260 223 C260 229.27 260 235.54 260 242 C272.54 242 285.08 242 298 242 C298 235.73 298 229.46 298 223 C310.21 223 322.42 223 335 223 C335 229.27 335 235.54 335 242 C328.73 242 322.46 242 316 242 C316 248.27 316 254.54 316 261 C322.27 261 328.54 261 335 261 C335 266.94 335 272.88 335 279 C328.73 279 322.46 279 316 279 C316 285.27 316 291.54 316 298 C322.27 298 328.54 298 335 298 C335 316.15 335 334.3 335 353 C340.94 353 346.88 353 353 353 C353 359.27 353 365.54 353 372 C347.06 372 341.12 372 335 372 C335 377.94 335 383.88 335 390 C341.27 390 347.54 390 354 390 C354 384.06 354 378.12 354 372 C359.94 372 365.88 372 372 372 C372 378.27 372 384.54 372 391 C377.94 391 383.88 391 390 391 C390 396.94 390 402.88 390 409 C353.37 409 316.74 409 279 409 C279 390.52 279 372.04 279 353 C285.27 353 291.54 353 298 353 C298 347.06 298 341.12 298 335 C285.79 335 273.58 335 261 335 C261 347.21 261 359.42 261 372 C254.73 372 248.46 372 242 372 C242 365.73 242 359.46 242 353 C217.58 353 193.16 353 168 353 C168 347.06 168 341.12 168 335 C173.94 335 179.88 335 186 335 C186 328.73 186 322.46 186 316 C180.06 316 174.12 316 168 316 C168 310.06 168 304.12 168 298 C173.94 298 179.88 298 186 298 C186 291.73 186 285.46 186 279 C173.79 279 161.58 279 149 279 C149 273.06 149 267.12 149 261 C154.94 261 160.88 261 167 261 C167 254.73 167 248.46 167 242 C161.06 242 155.12 242 149 242 C149 247.94 149 253.88 149 260 C143.06 260 137.12 260 131 260 C131 254.06 131 248.12 131 242 C124.73 242 118.46 242 112 242 C112 247.94 112 253.88 112 260 C105.73 260 99.46 260 93 260 C93 266.27 93 272.54 93 279 C105.21 279 117.42 279 130 279 C130 297.48 130 315.96 130 335 C117.79 335 105.58 335 93 335 C93 328.73 93 322.46 93 316 C80.79 316 68.58 316 56 316 C56 310.06 56 304.12 56 298 C50.06 298 44.12 298 38 298 C38 285.79 38 273.58 38 261 C43.94 261 49.88 261 56 261 C56 254.73 56 248.46 56 242 C62.27 242 68.54 242 75 242 C75 235.73 75 229.46 75 223 C80.94 223 86.88 223 93 223 C93 204.52 93 186.04 93 167 C74.85 167 56.7 167 38 167 C38 161.06 38 155.12 38 149 C25.46 149 12.92 149 0 149 C0 143.06 0 137.12 0 131 C18.48 131 36.96 131 56 131 C56 136.94 56 142.88 56 149 C62.27 149 68.54 149 75 149 C75 143.06 75 137.12 75 131 C80.94 131 86.88 131 93 131 C93 136.94 93 142.88 93 149 C105.21 149 117.42 149 130 149 C130 154.94 130 160.88 130 167 C124.06 167 118.12 167 112 167 C112 173.27 112 179.54 112 186 C117.94 186 123.88 186 130 186 C130 192.27 130 198.54 130 205 C124.06 205 118.12 205 112 205 C112 210.94 112 216.88 112 223 C118.27 223 124.54 223 131 223 C131 217.06 131 211.12 131 205 C136.94 205 142.88 205 149 205 C149 198.73 149 192.46 149 186 C154.94 186 160.88 186 167 186 C167 179.73 167 173.46 167 167 C161.06 167 155.12 167 149 167 C149 161.06 149 155.12 149 149 C143.06 149 137.12 149 131 149 C130.67 143.06 130.34 137.12 130 131 C117.79 130.67 105.58 130.34 93 130 C93 124.06 93 118.12 93 112 C87.06 112 81.12 112 75 112 C75 105.73 75 99.46 75 93 C68.73 93 62.46 93 56 93 C56 99.27 56 105.54 56 112 C49.73 112 43.46 112 37 112 C37 105.73 37 99.46 37 93 C31.06 93 25.12 93 19 93 C19 87.06 19 81.12 19 75 C12.73 75 6.46 75 0 75 C0 68.73 0 62.46 0 56 C6.27 56 12.54 56 19 56 C19 43.79 19 31.58 19 19 C12.73 19 6.46 19 0 19 C0 12.73 0 6.46 0 0 Z " fill="#020202" transform="translate(456,310)"/>
<path d="M0 0 C6.27 0 12.54 0 19 0 C19 5.94 19 11.88 19 18 C25.27 18 31.54 18 38 18 C38 12.06 38 6.12 38 0 C56.15 0 74.3 0 93 0 C93 5.94 93 11.88 93 18 C87.06 18 81.12 18 75 18 C75 24.27 75 30.54 75 37 C80.94 37 86.88 37 93 37 C93 42.94 93 48.88 93 55 C87.06 55 81.12 55 75 55 C75 61.27 75 67.54 75 74 C81.27 74 87.54 74 94 74 C94 67.73 94 61.46 94 55 C99.94 55 105.88 55 112 55 C112 49.06 112 43.12 112 37 C106.06 37 100.12 37 94 37 C94 30.73 94 24.46 94 18 C99.94 18 105.88 18 112 18 C112 12.06 112 6.12 112 0 C118.27 0 124.54 0 131 0 C131 18.15 131 36.3 131 55 C143.21 55 155.42 55 168 55 C168 61.27 168 67.54 168 74 C161.73 74 155.46 74 149 74 C149 79.94 149 85.88 149 92 C155.27 92 161.54 92 168 92 C168 104.54 168 117.08 168 130 C155.79 130 143.58 130 131 130 C131 135.94 131 141.88 131 148 C136.94 148 142.88 148 149 148 C149 154.27 149 160.54 149 167 C143.06 167 137.12 167 131 167 C131.03957769 172.87883003 131.03957769 172.87883003 131.09008789 178.75756836 C131.09383423 179.85016968 131.09383423 179.85016968 131.09765625 180.96484375 C131.10289307 181.7137085 131.10812988 182.46257324 131.11352539 183.23413086 C131 185 131 185 130 186 C127.3337397 186.08855161 124.69352886 186.11524673 122.02734375 186.09765625 C121.22970108 186.0962413 120.43205841 186.09482635 119.61024475 186.09336853 C117.05262565 186.08775316 114.49509282 186.07519812 111.9375 186.0625 C110.20768355 186.05748698 108.47786574 186.05292373 106.74804688 186.04882812 C102.49863761 186.03862791 98.24941584 186.01905568 94 186 C94 191.94 94 197.88 94 204 C118.42 204 142.84 204 168 204 C168 209.94 168 215.88 168 222 C155.79 222.33 143.58 222.66 131 223 C130.67 228.94 130.34 234.88 130 241 C124.06 241 118.12 241 112 241 C112 235.06 112 229.12 112 223 C106.06 223 100.12 223 94 223 C94 228.94 94 234.88 94 241 C87.73 241 81.46 241 75 241 C75 247.27 75 253.54 75 260 C80.94 260 86.88 260 93 260 C93 265.94 93 271.88 93 278 C87.06 278 81.12 278 75 278 C75 284.27 75 290.54 75 297 C87.21 297 99.42 297 112 297 C112 302.94 112 308.88 112 315 C117.94 315 123.88 315 130 315 C130 321.27 130 327.54 130 334 C124.06 334 118.12 334 112 334 C112 328.06 112 322.12 112 316 C93.52 316 75.04 316 56 316 C56 303.46 56 290.92 56 278 C50.06 278 44.12 278 38 278 C38 272.06 38 266.12 38 260 C25.46 260 12.92 260 0 260 C0 253.73 0 247.46 0 241 C-5.94 241 -11.88 241 -18 241 C-18 228.79 -18 216.58 -18 204 C-24.27 204 -30.54 204 -37 204 C-37 198.06 -37 192.12 -37 186 C-30.73 186 -24.46 186 -18 186 C-18 179.73 -18 173.46 -18 167 C-24.27 167 -30.54 167 -37 167 C-37 142.25 -37 117.5 -37 92 C-30.73 92 -24.46 92 -18 92 C-18 104.54 -18 117.08 -18 130 C-12.06 130 -6.12 130 0 130 C0 123.73 0 117.46 0 111 C6.27 111 12.54 111 19 111 C19 104.73 19 98.46 19 92 C12.73 92 6.46 92 0 92 C0 86.06 0 80.12 0 74 C-12.21 74 -24.42 74 -37 74 C-37 67.73 -37 61.46 -37 55 C-24.46 55 -11.92 55 1 55 C1 61.27 1 67.54 1 74 C6.94 74 12.88 74 19 74 C19 61.79 19 49.58 19 37 C0.52 37 -17.96 37 -37 37 C-37 30.73 -37 24.46 -37 18 C-24.79 18 -12.58 18 0 18 C0 12.06 0 6.12 0 0 Z " fill="#030303" transform="translate(270,255)"/>
<path d="M0 0 C18.48 0 36.96 0 56 0 C56 5.94 56 11.88 56 18 C62.27 18 68.54 18 75 18 C75 12.06 75 6.12 75 0 C80.94 0 86.88 0 93 0 C93 5.94 93 11.88 93 18 C99.27 18 105.54 18 112 18 C112 12.06 112 6.12 112 0 C118.27 0 124.54 0 131 0 C131 5.94 131 11.88 131 18 C136.94 18 142.88 18 149 18 C149 12.06 149 6.12 149 0 C179.69 0 210.38 0 242 0 C242 12.21 242 24.42 242 37 C235.73 37 229.46 37 223 37 C223 42.94 223 48.88 223 55 C210.79 55 198.58 55 186 55 C186 43.12 186 31.24 186 19 C173.79 19 161.58 19 149 19 C149 24.94 149 30.88 149 37 C142.73 37 136.46 37 130 37 C130 31.06 130 25.12 130 19 C124.06 19 118.12 19 112 19 C112 24.94 112 30.88 112 37 C105.73 37 99.46 37 93 37 C93 42.94 93 48.88 93 55 C87.06 55 81.12 55 75 55 C75 67.54 75 80.08 75 93 C80.94 93 86.88 93 93 93 C93 86.73 93 80.46 93 74 C99.27 74 105.54 74 112 74 C112 80.27 112 86.54 112 93 C117.94 93 123.88 93 130 93 C130 86.73 130 80.46 130 74 C142.54 74 155.08 74 168 74 C168 80.27 168 86.54 168 93 C173.94 93 179.88 93 186 93 C186 98.94 186 104.88 186 111 C192.27 111 198.54 111 205 111 C205 105.06 205 99.12 205 93 C210.94 93 216.88 93 223 93 C223 80.79 223 68.58 223 56 C229.27 56 235.54 56 242 56 C242 80.42 242 104.84 242 130 C235.73 130 229.46 130 223 130 C223 136.27 223 142.54 223 149 C217.06 149 211.12 149 205 149 C205 161.21 205 173.42 205 186 C198.73 186 192.46 186 186 186 C186 179.73 186 173.46 186 167 C179.73 167 173.46 167 167 167 C167 154.79 167 142.58 167 130 C161.06 130 155.12 130 149 130 C149 135.94 149 141.88 149 148 C143.06 148 137.12 148 131 148 C131 154.27 131 160.54 131 167 C136.94 167 142.88 167 149 167 C149 173.27 149 179.54 149 186 C136.79 186 124.58 186 112 186 C112 179.73 112 173.46 112 167 C105.73 167 99.46 167 93 167 C93 185.48 93 203.96 93 223 C87.06 223 81.12 223 75 223 C75 204.52 75 186.04 75 167 C68.73 167 62.46 167 56 167 C56 173.27 56 179.54 56 186 C49.73 186 43.46 186 37 186 C37 179.73 37 173.46 37 167 C24.79 167 12.58 167 0 167 C0 148.85 0 130.7 0 112 C-5.94 112 -11.88 112 -18 112 C-18 136.42 -18 160.84 -18 186 C-24.27 186 -30.54 186 -37 186 C-37 161.58 -37 137.16 -37 112 C-42.94 112 -48.88 112 -55 112 C-55 117.94 -55 123.88 -55 130 C-61.27 130 -67.54 130 -74 130 C-74 123.73 -74 117.46 -74 111 C-68.06 111 -62.12 111 -56 111 C-56 98.79 -56 86.58 -56 74 C-61.94 74 -67.88 74 -74 74 C-74 67.73 -74 61.46 -74 55 C-68.06 55 -62.12 55 -56 55 C-56 49.06 -56 43.12 -56 37 C-49.73 37 -43.46 37 -37 37 C-37 42.94 -37 48.88 -37 55 C-30.73 55 -24.46 55 -18 55 C-18 61.27 -18 67.54 -18 74 C0.15 74 18.3 74 37 74 C37 68.06 37 62.12 37 56 C43.27 56 49.54 56 56 56 C56 49.73 56 43.46 56 37 C43.79 37 31.58 37 19 37 C19 30.73 19 24.46 19 18 C12.73 18 6.46 18 0 18 C0 12.06 0 6.12 0 0 Z " fill="#0F0E0D" transform="translate(456,106)"/>
<path d="M0 0 C6.27 0 12.54 0 19 0 C19 6.27 19 12.54 19 19 C24.94 19 30.88 19 37 19 C37 24.94 37 30.88 37 37 C39.65933594 36.98839844 42.31867188 36.97679687 45.05859375 36.96484375 C47.62345256 36.95705348 50.18831007 36.95097655 52.75317383 36.94506836 C54.54094021 36.94002782 56.32870245 36.93319546 58.11645508 36.92456055 C60.68051168 36.9124827 63.24451397 36.90676906 65.80859375 36.90234375 C66.6127623 36.89718246 67.41693085 36.89202118 68.24546814 36.88670349 C70.16401715 36.88650785 72.08245368 36.93798017 74 37 C75 38 75 38 75.11352539 39.76586914 C75.10828857 40.51473389 75.10305176 41.26359863 75.09765625 42.03515625 C75.09515869 42.76355713 75.09266113 43.49195801 75.09008789 44.24243164 C75.08098389 45.1730542 75.07187988 46.10367676 75.0625 47.0625 C75.041875 50.011875 75.02125 52.96125 75 56 C80.94 56 86.88 56 93 56 C93 61.94 93 67.88 93 74 C98.94 74 104.88 74 111 74 C111 80.27 111 86.54 111 93 C105.06 93 99.12 93 93 93 C93 99.27 93 105.54 93 112 C87.06 112 81.12 112 75 112 C75 117.94 75 123.88 75 130 C68.73 130 62.46 130 56 130 C56 124.06 56 118.12 56 112 C61.94 112 67.88 112 74 112 C74 105.73 74 99.46 74 93 C68.06 93 62.12 93 56 93 C56 86.73 56 80.46 56 74 C61.94 74 67.88 74 74 74 C74 68.06 74 62.12 74 56 C61.79 56 49.58 56 37 56 C37 50.06 37 44.12 37 38 C31.06 38 25.12 38 19 38 C19 43.94 19 49.88 19 56 C12.73 56 6.46 56 0 56 C0 50.06 0 44.12 0 38 C-18.48 38 -36.96 38 -56 38 C-56 43.94 -56 49.88 -56 56 C-43.46 56 -30.92 56 -18 56 C-18 61.94 -18 67.88 -18 74 C0.15 74 18.3 74 37 74 C37 74.33 37 74.66 37 75 C18.85 75 0.7 75 -18 75 C-18 93.15 -18 111.3 -18 130 C-24.27 130 -30.54 130 -37 130 C-37 148.48 -37 166.96 -37 186 C-43.27 186 -49.54 186 -56 186 C-56 167.52 -56 149.04 -56 130 C-68.21 130 -80.42 130 -93 130 C-93 136.27 -93 142.54 -93 149 C-117.42 149 -141.84 149 -167 149 C-167 142.73 -167 136.46 -167 130 C-161.06 130 -155.12 130 -149 130 C-149 124.06 -149 118.12 -149 112 C-154.94 112 -160.88 112 -167 112 C-167 105.73 -167 99.46 -167 93 C-160.73 93 -154.46 93 -148 93 C-148 87.06 -148 81.12 -148 75 C-142.06 75 -136.12 75 -130 75 C-130 80.94 -130 86.88 -130 93 C-124.06 93 -118.12 93 -112 93 C-112.03957769 87.12116997 -112.03957769 87.12116997 -112.09008789 81.24243164 C-112.09258545 80.51403076 -112.09508301 79.78562988 -112.09765625 79.03515625 C-112.10289307 78.2862915 -112.10812988 77.53742676 -112.11352539 76.76586914 C-112 75 -112 75 -111 74 C-108.26105915 73.91141354 -105.5474673 73.88476521 -102.80859375 73.90234375 C-101.98875504 73.9037587 -101.16891632 73.90517365 -100.32423401 73.90663147 C-97.69528618 73.91224711 -95.06642227 73.92480221 -92.4375 73.9375 C-90.65950643 73.94251299 -88.88151154 73.94707624 -87.10351562 73.95117188 C-82.73561842 73.96137248 -78.3679036 73.98094468 -74 74 C-74 68.06 -74 62.12 -74 56 C-98.42 56 -122.84 56 -148 56 C-148 50.06 -148 44.12 -148 38 C-136.12 37.67 -124.24 37.34 -112 37 C-111.67 31.06 -111.34 25.12 -111 19 C-92.85 19 -74.7 19 -56 19 C-56 24.94 -56 30.88 -56 37 C-37.52 37 -19.04 37 0 37 C0 24.79 0 12.58 0 0 Z " fill="#F8EBD1" transform="translate(512,403)"/>
<path d="M0 0 C43.23 0 86.46 0 131 0 C131 42.9 131 85.8 131 130 C87.77 130 44.54 130 0 130 C0 87.1 0 44.2 0 0 Z " fill="#F9ECD1" transform="translate(233,589)"/>
<path d="M0 0 C43.23 0 86.46 0 131 0 C131 42.9 131 85.8 131 130 C87.77 130 44.54 130 0 130 C0 87.1 0 44.2 0 0 Z " fill="#FBEED3" transform="translate(233,106)"/>
<path d="M0 0 C42.57 0 85.14 0 129 0 C129 42.9 129 85.8 129 130 C86.43 130 43.86 130 0 130 C0 87.1 0 44.2 0 0 Z " fill="#F8EBD0" transform="translate(717,106)"/>
<path d="M0 0 C6.27 0 12.54 0 19 0 C19 5.94 19 11.88 19 18 C25.27 18 31.54 18 38 18 C38 12.06 38 6.12 38 0 C56.15 0 74.3 0 93 0 C93 5.94 93 11.88 93 18 C87.06 18 81.12 18 75 18 C75 24.27 75 30.54 75 37 C80.94 37 86.88 37 93 37 C93 42.94 93 48.88 93 55 C87.06 55 81.12 55 75 55 C75 61.27 75 67.54 75 74 C68.73 74 62.46 74 56 74 C56 80.27 56 86.54 56 93 C61.94 93 67.88 93 74 93 C74 98.94 74 104.88 74 111 C80.6 111 87.2 111 94 111 C94 117.27 94 123.54 94 130 C81.46 130 68.92 130 56 130 C56 135.94 56 141.88 56 148 C50.06 148 44.12 148 38 148 C38 142.06 38 136.12 38 130 C31.73 130 25.46 130 19 130 C19 135.94 19 141.88 19 148 C6.79 148 -5.42 148 -18 148 C-18 154.27 -18 160.54 -18 167 C-24.27 167 -30.54 167 -37 167 C-37 142.25 -37 117.5 -37 92 C-30.73 92 -24.46 92 -18 92 C-18 104.54 -18 117.08 -18 130 C-12.06 130 -6.12 130 0 130 C0 123.73 0 117.46 0 111 C6.27 111 12.54 111 19 111 C19 104.73 19 98.46 19 92 C12.73 92 6.46 92 0 92 C0 86.06 0 80.12 0 74 C-12.21 74 -24.42 74 -37 74 C-37 67.73 -37 61.46 -37 55 C-24.46 55 -11.92 55 1 55 C1 61.27 1 67.54 1 74 C6.94 74 12.88 74 19 74 C19 61.79 19 49.58 19 37 C0.52 37 -17.96 37 -37 37 C-37 30.73 -37 24.46 -37 18 C-24.79 18 -12.58 18 0 18 C0 12.06 0 6.12 0 0 Z " fill="#030303" transform="translate(270,255)"/>
<path d="M0 0 C18.48 0 36.96 0 56 0 C56 5.94 56 11.88 56 18 C62.27 18 68.54 18 75 18 C75 12.06 75 6.12 75 0 C80.94 0 86.88 0 93 0 C93 5.94 93 11.88 93 18 C99.27 18 105.54 18 112 18 C112 12.06 112 6.12 112 0 C118.27 0 124.54 0 131 0 C131 5.94 131 11.88 131 18 C136.94 18 142.88 18 149 18 C149 12.06 149 6.12 149 0 C179.69 0 210.38 0 242 0 C242 12.21 242 24.42 242 37 C235.73 37 229.46 37 223 37 C223 42.94 223 48.88 223 55 C210.79 55 198.58 55 186 55 C186 43.12 186 31.24 186 19 C173.79 19 161.58 19 149 19 C149 24.94 149 30.88 149 37 C142.73 37 136.46 37 130 37 C130 31.06 130 25.12 130 19 C124.06 19 118.12 19 112 19 C112 24.94 112 30.88 112 37 C105.73 37 99.46 37 93 37 C93 42.94 93 48.88 93 55 C87.06 55 81.12 55 75 55 C75 67.54 75 80.08 75 93 C62.46 93 49.92 93 37 93 C37 98.94 37 104.88 37 111 C31.06 111 25.12 111 19 111 C19 105.06 19 99.12 19 93 C12.73 93 6.46 93 0 93 C0 98.94 0 104.88 0 111 C-5.94 111 -11.88 111 -18 111 C-18 105.06 -18 99.12 -18 93 C-24.27 93 -30.54 93 -37 93 C-37 98.94 -37 104.88 -37 111 C-42.94 111 -48.88 111 -55 111 C-55 98.79 -55 86.58 -55 74 C-49.06 74 -43.12 74 -37 74 C-37 68.06 -37 62.12 -37 56 C-30.73 56 -24.46 56 -18 56 C-18 61.94 -18 67.88 -18 74 C0.15 74 18.3 74 37 74 C37 68.06 37 62.12 37 56 C43.27 56 49.54 56 56 56 C56 49.73 56 43.46 56 37 C43.79 37 31.58 37 19 37 C19 30.73 19 24.46 19 18 C12.73 18 6.46 18 0 18 C0 12.06 0 6.12 0 0 Z " fill="#020202" transform="translate(456,106)"/>
<path d="M0 0 C6.27 0 12.54 0 19 0 C19 12.21 19 24.42 19 37 C37.15 37 55.3 37 74 37 C74 55.48 74 73.96 74 93 C61.79 93 49.58 93 37 93 C37 99.27 37 105.54 37 112 C43.27 112 49.54 112 56 112 C56 117.94 56 123.88 56 130 C50.06 130.33 44.12 130.66 38 131 C37.67 136.94 37.34 142.88 37 149 C31.06 149 25.12 149 19 149 C19 143.06 19 137.12 19 131 C12.73 131 6.46 131 0 131 C0 136.94 0 142.88 0 149 C-5.94 149 -11.88 149 -18 149 C-18 167.48 -18 185.96 -18 205 C-24.27 205 -30.54 205 -37 205 C-37 198.73 -37 192.46 -37 186 C-42.94 186 -48.88 186 -55 186 C-55 180.06 -55 174.12 -55 168 C-49.06 168 -43.12 168 -37 168 C-37 161.73 -37 155.46 -37 149 C-42.94 149 -48.88 149 -55 149 C-55 124.58 -55 100.16 -55 75 C-67.54 75 -80.08 75 -93 75 C-93 68.73 -93 62.46 -93 56 C-80.46 56 -67.92 56 -55 56 C-55 43.79 -55 31.58 -55 19 C-49.06 19 -43.12 19 -37 19 C-37 43.42 -37 67.84 -37 93 C-30.73 93 -24.46 93 -18 93 C-18 105.21 -18 117.42 -18 130 C-12.06 130 -6.12 130 0 130 C0 124.06 0 118.12 0 112 C6.27 112 12.54 112 19 112 C19 99.79 19 87.58 19 75 C24.94 75 30.88 75 37 75 C37 68.73 37 62.46 37 56 C31.06 56 25.12 56 19 56 C19 50.06 19 44.12 19 38 C12.73 38 6.46 38 0 38 C0 43.94 0 49.88 0 56 C-5.94 56 -11.88 56 -18 56 C-18 43.79 -18 31.58 -18 19 C-12.06 19 -6.12 19 0 19 C0 12.73 0 6.46 0 0 Z " fill="#010101" transform="translate(772,310)"/>
<path d="M0 0 C6.27 0 12.54 0 19 0 C19 5.94 19 11.88 19 18 C24.94 18 30.88 18 37 18 C37 12.06 37 6.12 37 0 C61.42 0 85.84 0 111 0 C111 5.94 111 11.88 111 18 C105.06 18 99.12 18 93 18 C93 24.27 93 30.54 93 37 C111.48 37 129.96 37 149 37 C149 43.27 149 49.54 149 56 C167.15 56 185.3 56 204 56 C204 61.94 204 67.88 204 74 C198.06 74 192.12 74 186 74 C186 86.21 186 98.42 186 111 C173.79 111 161.58 111 149 111 C149 104.73 149 98.46 149 92 C154.94 92 160.88 92 167 92 C167 86.06 167 80.12 167 74 C154.79 74 142.58 74 130 74 C130 79.94 130 85.88 130 92 C124.06 92 118.12 92 112 92 C112 86.06 112 80.12 112 74 C105.73 74 99.46 74 93 74 C93 68.06 93 62.12 93 56 C80.79 56 68.58 56 56 56 C56 61.94 56 67.88 56 74 C49.73 74 43.46 74 37 74 C37 68.06 37 62.12 37 56 C31.06 56 25.12 56 19 56 C19 61.94 19 67.88 19 74 C12.73 74 6.46 74 0 74 C0 67.73 0 61.46 0 55 C5.94 55 11.88 55 18 55 C18 49.06 18 43.12 18 37 C12.06 37 6.12 37 0 37 C0 24.79 0 12.58 0 0 Z " fill="#020201" transform="translate(382,608)"/>
<path d="M0 0 C43.23 0 86.46 0 131 0 C131 42.9 131 85.8 131 130 C87.77 130 44.54 130 0 130 C0 87.1 0 44.2 0 0 Z M19 19 C19 49.36 19 79.72 19 111 C49.69 111 80.38 111 112 111 C112 80.64 112 50.28 112 19 C81.31 19 50.62 19 19 19 Z " fill="#050504" transform="translate(233,106)"/>
<path d="M0 0 C43.23 0 86.46 0 131 0 C131 42.9 131 85.8 131 130 C87.77 130 44.54 130 0 130 C0 87.1 0 44.2 0 0 Z M19 19 C19 49.69 19 80.38 19 112 C49.69 112 80.38 112 112 112 C112 81.31 112 50.62 112 19 C81.31 19 50.62 19 19 19 Z " fill="#030303" transform="translate(233,589)"/>
<path d="M0 0 C6.27 0 12.54 0 19 0 C19 5.94 19 11.88 19 18 C25.27 18 31.54 18 38 18 C38 18.33 38 18.66 38 19 C31.73 19 25.46 19 19 19 C19 24.94 19 30.88 19 37 C13.06 37 7.12 37 1 37 C1 49.21 1 61.42 1 74 C6.94 74 12.88 74 19 74 C19 68.06 19 62.12 19 56 C25.27 56 31.54 56 38 56 C38 61.94 38 67.88 38 74 C43.94 74 49.88 74 56 74 C56 68.06 56 62.12 56 56 C62.27 56 68.54 56 75 56 C75 61.94 75 67.88 75 74 C80.94 74 86.88 74 93 74 C93 68.06 93 62.12 93 56 C105.54 56 118.08 56 131 56 C131 68.21 131 80.42 131 93 C124.73 93 118.46 93 112 93 C112 111.48 112 129.96 112 149 C105.73 149 99.46 149 93 149 C93 142.73 93 136.46 93 130 C80.79 130 68.58 130 56 130 C56 111.85 56 93.7 56 75 C50.06 75 44.12 75 38 75 C38 99.42 38 123.84 38 149 C31.73 149 25.46 149 19 149 C19 124.58 19 100.16 19 75 C13.06 75 7.12 75 1 75 C1 80.94 1 86.88 1 93 C-5.27 93 -11.54 93 -18 93 C-18 86.73 -18 80.46 -18 74 C-12.06 74 -6.12 74 0 74 C0 61.79 0 49.58 0 37 C-5.94 37 -11.88 37 -18 37 C-18 30.73 -18 24.46 -18 18 C-12.06 18 -6.12 18 0 18 C0 12.06 0 6.12 0 0 Z " fill="#070606" transform="translate(400,143)"/>
<path d="M0 0 C42.57 0 85.14 0 129 0 C129 42.9 129 85.8 129 130 C86.43 130 43.86 130 0 130 C0 87.1 0 44.2 0 0 Z M18 18 C18 49.02 18 80.04 18 112 C48.69 112 79.38 112 111 112 C111 80.98 111 49.96 111 18 C80.31 18 49.62 18 18 18 Z " fill="#000000" transform="translate(717,106)"/>
<path d="M0 0 C5.94 0 11.88 0 18 0 C18 5.94 18 11.88 18 18 C24.27 18 30.54 18 37 18 C37 12.06 37 6.12 37 0 C49.21 0 61.42 0 74 0 C74 11.88 74 23.76 74 36 C92.48 36 110.96 36 130 36 C130 36.33 130 36.66 130 37 C123.73 37 117.46 37 111 37 C111 49.21 111 61.42 111 74 C105.06 74 99.12 74 93 74 C93 79.94 93 85.88 93 92 C86.73 92 80.46 92 74 92 C74 86.06 74 80.12 74 74 C68.06 74 62.12 74 56 74 C56 67.73 56 61.46 56 55 C43.46 55 30.92 55 18 55 C18 61.27 18 67.54 18 74 C12.06 74 6.12 74 0 74 C0 67.73 0 61.46 0 55 C-6.27 55 -12.54 55 -19 55 C-19 61.27 -19 67.54 -19 74 C-24.94 74 -30.88 74 -37 74 C-37 61.46 -37 48.92 -37 36 C-31.06 36 -25.12 36 -19 36 C-19 30.06 -19 24.12 -19 18 C-12.73 18 -6.46 18 0 18 C0 12.06 0 6.12 0 0 Z " fill="#FAEDD3" transform="translate(568,125)"/>
<path d="M0 0 C6.27 0 12.54 0 19 0 C19 6.27 19 12.54 19 19 C24.94 19 30.88 19 37 19 C37 31.21 37 43.42 37 56 C43.27 56 49.54 56 56 56 C56 61.94 56 67.88 56 74 C50.06 74 44.12 74 38 74 C38 80.27 38 86.54 38 93 C43.94 93 49.88 93 56 93 C56 99.27 56 105.54 56 112 C43.79 112 31.58 112 19 112 C19 105.73 19 99.46 19 93 C12.73 93 6.46 93 0 93 C0 111.48 0 129.96 0 149 C-5.94 149 -11.88 149 -18 149 C-18 130.52 -18 112.04 -18 93 C-24.27 93 -30.54 93 -37 93 C-37 80.79 -37 68.58 -37 56 C-30.73 56 -24.46 56 -18 56 C-18 43.79 -18 31.58 -18 19 C-12.06 19 -6.12 19 0 19 C0 12.73 0 6.46 0 0 Z " fill="#010101" transform="translate(549,180)"/>
<path d="M0 0 C12.54 0 25.08 0 38 0 C38 24.42 38 48.84 38 74 C43.94 74 49.88 74 56 74 C56 80.27 56 86.54 56 93 C50.06 93 44.12 93 38 93 C38 98.94 38 104.88 38 111 C43.94 111 49.88 111 56 111 C56 123.21 56 135.42 56 148 C50.06 148 44.12 148 38 148 C38 154.27 38 160.54 38 167 C37.67 167 37.34 167 37 167 C37 160.73 37 154.46 37 148 C31.06 148 25.12 148 19 148 C19 129.52 19 111.04 19 92 C6.79 92 -5.42 92 -18 92 C-18 73.85 -18 55.7 -18 37 C-5.79 37 6.42 37 19 37 C19 30.73 19 24.46 19 18 C12.73 18 6.46 18 0 18 C0 12.06 0 6.12 0 0 Z " fill="#F8EBD1" transform="translate(679,385)"/>
<path d="M0 0 C5.94 0 11.88 0 18 0 C18 6.27 18 12.54 18 19 C24.27 19 30.54 19 37 19 C37 24.94 37 30.88 37 37 C30.73 37 24.46 37 18 37 C18 43.27 18 49.54 18 56 C30.21 56 42.42 56 55 56 C55 74.48 55 92.96 55 112 C42.79 112 30.58 112 18 112 C18 105.73 18 99.46 18 93 C5.79 93 -6.42 93 -19 93 C-19 87.06 -19 81.12 -19 75 C-24.94 75 -30.88 75 -37 75 C-37 62.79 -37 50.58 -37 38 C-31.06 38 -25.12 38 -19 38 C-19 31.73 -19 25.46 -19 19 C-12.73 19 -6.46 19 0 19 C0 12.73 0 6.46 0 0 Z " fill="#010101" transform="translate(531,533)"/>
<path d="M0 0 C6.27 0 12.54 0 19 0 C19 5.94 19 11.88 19 18 C24.94 18 30.88 18 37 18 C37 12.06 37 6.12 37 0 C42.94 0 48.88 0 55 0 C55 6.27 55 12.54 55 19 C49.06 19 43.12 19 37 19 C37 24.94 37 30.88 37 37 C49.21 37 61.42 37 74 37 C74 43.27 74 49.54 74 56 C68.06 56 62.12 56 56 56 C56 61.94 56 67.88 56 74 C61.94 74 67.88 74 74 74 C74 80.27 74 86.54 74 93 C67.73 93 61.46 93 55 93 C55 98.94 55 104.88 55 111 C49.06 111 43.12 111 37 111 C37 105.06 37 99.12 37 93 C31.06 93 25.12 93 19 93 C19 74.52 19 56.04 19 37 C6.46 37 -6.08 37 -19 37 C-19 30.73 -19 24.46 -19 18 C-12.73 18 -6.46 18 0 18 C0 12.06 0 6.12 0 0 Z " fill="#F9ECD1" transform="translate(568,552)"/>
<path d="M0 0 C5.94 0 11.88 0 18 0 C18 18.15 18 36.3 18 55 C12.06 55 6.12 55 0 55 C0 73.48 0 91.96 0 111 C-6.27 111 -12.54 111 -19 111 C-19 92.52 -19 74.04 -19 55 C-31.21 55 -43.42 55 -56 55 C-56 61.27 -56 67.54 -56 74 C-68.21 74 -80.42 74 -93 74 C-93 67.73 -93 61.46 -93 55 C-87.06 55 -81.12 55 -75 55 C-75 49.06 -75 43.12 -75 37 C-68.73 37 -62.46 37 -56 37 C-56 30.73 -56 24.46 -56 18 C-49.73 18 -43.46 18 -37 18 C-37 24.27 -37 30.54 -37 37 C-24.79 37 -12.58 37 0 37 C0 24.79 0 12.58 0 0 Z " fill="#020201" transform="translate(475,478)"/>
<path d="M0 0 C18.48 0 36.96 0 56 0 C56 5.94 56 11.88 56 18 C62.27 18 68.54 18 75 18 C75 12.06 75 6.12 75 0 C80.94 0 86.88 0 93 0 C93 5.94 93 11.88 93 18 C105.21 18 117.42 18 130 18 C130 23.94 130 29.88 130 36 C124.06 36 118.12 36 112 36 C112 42.27 112 48.54 112 55 C117.94 55 123.88 55 130 55 C130 61.27 130 67.54 130 74 C124.06 74 118.12 74 112 74 C112 79.94 112 85.88 112 92 C105.73 92 99.46 92 93 92 C93 73.52 93 55.04 93 36 C74.85 36 56.7 36 38 36 C38 30.06 38 24.12 38 18 C25.46 18 12.92 18 0 18 C0 12.06 0 6.12 0 0 Z " fill="#020101" transform="translate(456,441)"/>
<path d="M0 0 C0.33 0 0.66 0 1 0 C1 12.21 1 24.42 1 37 C6.94 37 12.88 37 19 37 C19 42.94 19 48.88 19 55 C31.21 55 43.42 55 56 55 C56 61.27 56 67.54 56 74 C68.21 74 80.42 74 93 74 C93 55.52 93 37.04 93 18 C93.33 18 93.66 18 94 18 C94 36.48 94 54.96 94 74 C99.94 74 105.88 74 112 74 C112 79.94 112 85.88 112 92 C117.94 92 123.88 92 130 92 C130 86.06 130 80.12 130 74 C130.33 74 130.66 74 131 74 C131 79.94 131 85.88 131 92 C155.42 92 179.84 92 205 92 C205 92.33 205 92.66 205 93 C180.58 93 156.16 93 131 93 C131 98.94 131 104.88 131 111 C124.73 111 118.46 111 112 111 C112 105.06 112 99.12 112 93 C106.06 93 100.12 93 94 93 C94 98.94 94 104.88 94 111 C93.67 111 93.34 111 93 111 C93 105.06 93 99.12 93 93 C74.85 93 56.7 93 38 93 C38 86.73 38 80.46 38 74 C19.52 74 1.04 74 -18 74 C-18 67.73 -18 61.46 -18 55 C-12.06 55 -6.12 55 0 55 C0 49.06 0 43.12 0 37 C-24.42 37 -48.84 37 -74 37 C-74 36.67 -74 36.34 -74 36 C-49.58 36 -25.16 36 0 36 C0 24.12 0 12.24 0 0 Z " fill="#F6E9CF" transform="translate(493,571)"/>
<path d="M0 0 C6.27 0 12.54 0 19 0 C19 18.15 19 36.3 19 55 C31.21 55 43.42 55 56 55 C56 61.27 56 67.54 56 74 C49.73 74 43.46 74 37 74 C37 79.94 37 85.88 37 92 C31.06 92 25.12 92 19 92 C19 86.06 19 80.12 19 74 C12.73 74 6.46 74 0 74 C0 79.94 0 85.88 0 92 C-12.21 92 -24.42 92 -37 92 C-37 86.06 -37 80.12 -37 74 C-30.73 74 -24.46 74 -18 74 C-18 67.73 -18 61.46 -18 55 C-12.06 55 -6.12 55 0 55 C0 49.06 0 43.12 0 37 C-5.94 37 -11.88 37 -18 37 C-18 30.73 -18 24.46 -18 18 C-12.06 18 -6.12 18 0 18 C0 12.06 0 6.12 0 0 Z " fill="#030303" transform="translate(382,255)"/>
<path d="M0 0 C12.21 0 24.42 0 37 0 C37 5.94 37 11.88 37 18 C42.94 18 48.88 18 55 18 C55 24.27 55 30.54 55 37 C49.06 37 43.12 37 37 37 C37 42.94 37 48.88 37 55 C24.79 55 12.58 55 0 55 C0 61.27 0 67.54 0 74 C5.94 74 11.88 74 18 74 C18 79.94 18 85.88 18 92 C5.79 92 -6.42 92 -19 92 C-19 86.06 -19 80.12 -19 74 C-24.94 74 -30.88 74 -37 74 C-37 67.73 -37 61.46 -37 55 C-31.06 55 -25.12 55 -19 55 C-19 49.06 -19 43.12 -19 37 C-6.46 37 6.08 37 19 37 C19 30.73 19 24.46 19 18 C12.73 18 6.46 18 0 18 C0 12.06 0 6.12 0 0 Z " fill="#FBEED3" transform="translate(345,348)"/>
<path d="M0 0 C6.27 0 12.54 0 19 0 C19 5.94 19 11.88 19 18 C31.21 18 43.42 18 56 18 C56 12.06 56 6.12 56 0 C62.27 0 68.54 0 75 0 C75 5.94 75 11.88 75 18 C87.21 18 99.42 18 112 18 C112 30.54 112 43.08 112 56 C99.79 56 87.58 56 75 56 C75 61.94 75 67.88 75 74 C80.94 74 86.88 74 93 74 C93 80.27 93 86.54 93 93 C87.06 93 81.12 93 75 93 C75 98.94 75 104.88 75 111 C74.67 111 74.34 111 74 111 C74 105.06 74 99.12 74 93 C68.06 93 62.12 93 56 93 C56 80.79 56 68.58 56 56 C61.94 56 67.88 56 74 56 C74 49.73 74 43.46 74 37 C68.06 37 62.12 37 56 37 C56 31.06 56 25.12 56 19 C43.79 19 31.58 19 19 19 C19 24.94 19 30.88 19 37 C18.67 37 18.34 37 18 37 C18 31.06 18 25.12 18 19 C12.06 19 6.12 19 0 19 C0 12.73 0 6.46 0 0 Z " fill="#676156" transform="translate(326,329)"/>
<path d="M0 0 C5.24164252 4.15716476 8.65190093 10.08070279 10.75 16.375 C11.41628317 24.87284115 11.31900341 32.03347439 6.75 39.375 C6.30269531 40.09558594 5.85539062 40.81617188 5.39453125 41.55859375 C2.12801941 46.33137915 -1.00101368 48.95239093 -6.25 51.375 C-6.91 51.375 -7.57 51.375 -8.25 51.375 C-8.25 52.035 -8.25 52.695 -8.25 53.375 C-1.78916383 55.52861206 2.88778621 54.24628839 8.75 51.375 C9.61658615 52.63739712 10.46792059 53.91027501 11.3125 55.1875 C11.78816406 55.89519531 12.26382813 56.60289062 12.75390625 57.33203125 C13.75 59.375 13.75 59.375 12.75 62.375 C11.0078125 63.5078125 11.0078125 63.5078125 8.875 64.5 C8.17632812 64.83257813 7.47765625 65.16515625 6.7578125 65.5078125 C1.42817854 67.80971666 -3.51884932 68.17843234 -9.25 67.375 C-14.12012976 65.24569969 -17.46126084 62.69804633 -20.1875 58.125 C-22.97367002 54.41010663 -25.22195363 54.51409218 -29.65625 53.85546875 C-36.71982888 52.54700459 -43.37582485 48.22050304 -47.66015625 42.48828125 C-53.08930364 34.17836178 -54.43279889 26.2351465 -53.25 16.375 C-50.09741859 6.70409191 -44.92621672 0.7163624 -36.0625 -3.9375 C-24.00897967 -9.75559433 -10.77772734 -7.15803778 0 0 Z " fill="#272721" transform="translate(161.25,920.625)"/>
<path d="M0 0 C30.69 0 61.38 0 93 0 C93 12.21 93 24.42 93 37 C86.73 37 80.46 37 74 37 C74 42.94 74 48.88 74 55 C61.79 55 49.58 55 37 55 C37 42.79 37 30.58 37 18 C24.79 18 12.58 18 0 18 C0 12.06 0 6.12 0 0 Z " fill="#000000" transform="translate(605,106)"/>
<path d="M0 0 C18.48 0 36.96 0 56 0 C56 18.48 56 36.96 56 56 C37.52 56 19.04 56 0 56 C0 37.52 0 19.04 0 0 Z " fill="#030302" transform="translate(270,626)"/>
<path d="M0 0 C18.48 0 36.96 0 56 0 C56 18.48 56 36.96 56 56 C37.52 56 19.04 56 0 56 C0 37.52 0 19.04 0 0 Z " fill="#030302" transform="translate(754,143)"/>
<path d="M0 0 C18.48 0 36.96 0 56 0 C56 18.48 56 36.96 56 56 C37.52 56 19.04 56 0 56 C0 37.52 0 19.04 0 0 Z " fill="#030302" transform="translate(270,143)"/>
<path d="M0 0 C6.00052706 4.93376669 11.43537123 10.43971076 12.8125 18.3125 C13.69675597 27.75118728 13.84129411 36.45253011 7.8125 44.3125 C1.62760192 51.30094784 -5.24510521 55.723675 -14.6171875 56.65234375 C-25.65888244 56.94916351 -34.02489873 54.95956855 -42.1875 47.3125 C-49.22652785 39.49309212 -50.67639706 32.52299442 -50.4921875 22.07421875 C-49.81321538 13.69152447 -46.72483315 7.72231629 -40.50390625 2.07421875 C-28.28477962 -7.21891128 -13.31999275 -7.05176087 0 0 Z " fill="#272720" transform="translate(485.1875,918.6875)"/>
<path d="M0 0 C6.00052706 4.93376669 11.43537123 10.43971076 12.8125 18.3125 C13.69675597 27.75118728 13.84129411 36.45253011 7.8125 44.3125 C1.62760192 51.30094784 -5.24510521 55.723675 -14.6171875 56.65234375 C-25.65888244 56.94916351 -34.02489873 54.95956855 -42.1875 47.3125 C-49.22652785 39.49309212 -50.67639706 32.52299442 -50.4921875 22.07421875 C-49.81321538 13.69152447 -46.72483315 7.72231629 -40.50390625 2.07421875 C-28.28477962 -7.21891128 -13.31999275 -7.05176087 0 0 Z " fill="#272720" transform="translate(795.1875,800.6875)"/>
<path d="M0 0 C18.48 0 36.96 0 56 0 C56 18.15 56 36.3 56 55 C37.52 55 19.04 55 0 55 C0 36.85 0 18.7 0 0 Z " fill="#FBEED3" transform="translate(698,571)"/>
<path d="M0 0 C5.5275 -0.12375 11.055 -0.2475 16.75 -0.375 C19.32699707 -0.45693604 19.32699707 -0.45693604 21.95605469 -0.54052734 C32.49902441 -0.73544707 41.16034377 0.60166903 49.25488281 8.08447266 C55.16321912 14.34552163 57.57148219 20.22485502 57.5 28.75 C57.49355469 29.54768799 57.48710938 30.34537598 57.48046875 31.16723633 C57.21315747 39.80824923 54.59921177 45.71117794 48.5 51.875 C38.59964449 59.49223444 26.61606843 59.53958123 14.6875 59.25 C9.840625 59.1675 4.99375 59.085 0 59 C0 39.53 0 20.06 0 0 Z " fill="#282822" transform="translate(653,915)"/>
<path d="M0 0 C8.6315625 -0.12375 8.6315625 -0.12375 17.4375 -0.25 C19.23501709 -0.28641602 21.03253418 -0.32283203 22.88452148 -0.36035156 C38.67894313 -0.54767947 38.67894313 -0.54767947 45 4 C48.21307135 7.37372492 49.89825021 9.65181526 50.25 14.3125 C49.97992356 18.29612746 49.43392361 19.89464918 47 23 C44.3125 25.3125 44.3125 25.3125 42 27 C42.55429687 27.45890625 43.10859375 27.9178125 43.6796875 28.390625 C44.40414062 29.00421875 45.12859375 29.6178125 45.875 30.25 C46.95394531 31.15492188 46.95394531 31.15492188 48.0546875 32.078125 C51.23969313 35.22475706 51.93595338 37.34885933 52.375 41.8125 C52.24086213 46.31450231 50.85552893 49.53634917 48 53 C41.61389139 58.13665258 35.57305494 59.30541469 27.5390625 59.1953125 C26.83740967 59.19329834 26.13575684 59.19128418 25.4128418 59.18920898 C22.81682707 59.1788238 20.22090628 59.15090176 17.625 59.125 C11.80875 59.08375 5.9925 59.0425 0 59 C0 39.53 0 20.06 0 0 Z " fill="#262620" transform="translate(688,797)"/>
<path d="M0 0 C5.94 0 11.88 0 18 0 C18 5.94 18 11.88 18 18 C24.27 18 30.54 18 37 18 C37 24.27 37 30.54 37 37 C42.94 37 48.88 37 55 37 C55 49.21 55 61.42 55 74 C49.06 74 43.12 74 37 74 C37 67.73 37 61.46 37 55 C18.52 55 0.04 55 -19 55 C-19 49.06 -19 43.12 -19 37 C-12.73 37 -6.46 37 0 37 C0 24.79 0 12.58 0 0 Z " fill="#FCEFD4" transform="translate(568,348)"/>
<path d="M0 0 C8.3840625 -0.12375 8.3840625 -0.12375 16.9375 -0.25 C18.68281006 -0.28641602 20.42812012 -0.32283203 22.22631836 -0.36035156 C31.88540362 -0.47800678 39.15494784 -0.00243439 46.875 6.375 C51.10496479 11.60025062 52.57248026 15.73855026 52.3515625 22.40625 C51.36907272 29.65484124 48.05655295 33.94344705 43 39 C43.52540257 43.3204637 46.18906261 46.59937325 48.5625 50.125 C53 56.73748103 53 56.73748103 53 59 C47.39 59 41.78 59 36 59 C34.68 56.73125 33.36 54.4625 32 52.125 C31.58234375 51.41230957 31.1646875 50.69961914 30.734375 49.96533203 C28 45.22222222 28 45.22222222 28 43 C24.04 43 20.08 43 16 43 C16 48.28 16 53.56 16 59 C10.72 59 5.44 59 0 59 C0 39.53 0 20.06 0 0 Z " fill="#292822" transform="translate(569,915)"/>
<path d="M0 0 C8.353125 -0.1546875 8.353125 -0.1546875 16.875 -0.3125 C19.47930908 -0.38078003 19.47930908 -0.38078003 22.13623047 -0.45043945 C31.5215988 -0.5938702 39.35818828 -0.13599411 46.66381836 6.51464844 C51.57912507 11.95417446 51.39497533 17.69439185 51.35546875 24.7265625 C50.70332083 30.73205654 47.4517202 35.06148079 43 39 C42.34 39 41.68 39 41 39 C41.36351562 39.57032959 41.72703125 40.14065918 42.1015625 40.72827148 C43.73670219 43.29654137 45.36839323 45.86698437 47 48.4375 C47.57234375 49.33533203 48.1446875 50.23316406 48.734375 51.15820312 C49.27578125 52.01220703 49.8171875 52.86621094 50.375 53.74609375 C50.87773437 54.53685303 51.38046875 55.3276123 51.8984375 56.14233398 C53 58 53 58 53 59 C47.06 59 41.12 59 35 59 C33.906875 56.545625 32.81375 54.09125 31.6875 51.5625 C29.02283988 46.01052634 29.02283988 46.01052634 24.01953125 42.78125 C20.66832272 42.4580747 20.66832272 42.4580747 16 43 C16 48.28 16 53.56 16 59 C10.72 59 5.44 59 0 59 C0 39.53 0 20.06 0 0 Z " fill="#272620" transform="translate(180,915)"/>
<path d="M0 0 C18.15 0 36.3 0 55 0 C55 18.48 55 36.96 55 56 C42.79 56 30.58 56 18 56 C18 43.79 18 31.58 18 19 C12.06 19 6.12 19 0 19 C0 12.73 0 6.46 0 0 Z " fill="#040303" transform="translate(531,589)"/>
<path d="M0 0 C14 0 14 0 17.24609375 2.359375 C18.3815918 3.96435547 18.3815918 3.96435547 19.4375 5.75 C20.30616398 7.01900183 21.17603304 8.2871793 22.046875 9.5546875 C22.50513672 10.25561523 22.96339844 10.95654297 23.43554688 11.67871094 C25.79895198 15.18546121 28.36701656 18.53020892 30.92675781 21.89501953 C33.97452097 25.91240582 36.98327766 29.95925264 40 34 C40.33 22.78 40.66 11.56 41 0 C45.62 0 50.24 0 55 0 C55 19.47 55 38.94 55 59 C41 59 41 59 36.9921875 55.625 C35.90668315 54.11567323 34.86871182 52.57128095 33.875 51 C33.31151855 50.19578613 32.74803711 49.39157227 32.16748047 48.56298828 C30.99978917 46.89555777 29.84955708 45.21576908 28.71679688 43.52441406 C26.54470361 40.33052265 24.23044644 37.26075498 21.88769531 34.19091797 C19.56899841 31.14449708 17.28813142 28.06944459 15 25 C14.67 36.22 14.34 47.44 14 59 C9.38 59 4.76 59 0 59 C0 39.53 0 20.06 0 0 Z " fill="#25251F" transform="translate(291,915)"/>
<path d="M0 0 C14 0 14 0 17.24609375 2.359375 C18.3815918 3.96435547 18.3815918 3.96435547 19.4375 5.75 C20.30616398 7.01900183 21.17603304 8.2871793 22.046875 9.5546875 C22.50513672 10.25561523 22.96339844 10.95654297 23.43554688 11.67871094 C25.79895198 15.18546121 28.36701656 18.53020892 30.92675781 21.89501953 C33.97452097 25.91240582 36.98327766 29.95925264 40 34 C40.33 22.78 40.66 11.56 41 0 C45.62 0 50.24 0 55 0 C55 19.47 55 38.94 55 59 C41 59 41 59 36.9921875 55.625 C35.90668315 54.11567323 34.86871182 52.57128095 33.875 51 C33.31151855 50.19578613 32.74803711 49.39157227 32.16748047 48.56298828 C30.99978917 46.89555777 29.84955708 45.21576908 28.71679688 43.52441406 C26.54470361 40.33052265 24.23044644 37.26075498 21.88769531 34.19091797 C19.56899841 31.14449708 17.28813142 28.06944459 15 25 C14.67 36.22 14.34 47.44 14 59 C9.38 59 4.76 59 0 59 C0 39.53 0 20.06 0 0 Z " fill="#25251F" transform="translate(335,797)"/>
<path d="M0 0 C5.61 0 11.22 0 17 0 C22.88332096 13.21683928 28.68033763 26.46808817 34.3085022 39.79562378 C34.89403971 41.180784 35.48141985 42.56516676 36.07064819 43.94876099 C36.90017857 45.89849885 37.722554 47.85109959 38.54296875 49.8046875 C39.01758545 50.92858887 39.49220215 52.05249023 39.98120117 53.21044922 C41 56 41 56 41 59 C35.72 59 30.44 59 25 59 C23.68 56.03 22.36 53.06 21 50 C12.42 50 3.84 50 -5 50 C-6.32 52.97 -7.64 55.94 -9 59 C-13.95 59 -18.9 59 -24 59 C-23.23738555 55.18692774 -22.4927307 52.4904021 -20.99047852 49.01367188 C-20.57657364 48.04917114 -20.16266876 47.08467041 -19.73622131 46.09094238 C-19.28830734 45.0606189 -18.84039337 44.03029541 -18.37890625 42.96875 C-17.9189476 41.9000769 -17.45898895 40.83140381 -16.98509216 39.73034668 C-15.51543235 36.31825323 -14.03915518 32.9090711 -12.5625 29.5 C-11.0908689 26.09031657 -9.62057899 22.68005769 -8.15061951 19.26965332 C-7.23594438 17.14889807 -6.32002655 15.02867827 -5.40272522 12.90905762 C-4.98566818 11.94455688 -4.56861115 10.98005615 -4.13891602 9.98632812 C-3.59050804 8.71988464 -3.59050804 8.71988464 -3.03102112 7.42785645 C-1.98575119 4.96644679 -0.99315774 2.48289436 0 0 Z " fill="#282821" transform="translate(288,797)"/>
<path d="M0 0 C5.61 0 11.22 0 17 0 C19.61471338 6.18880684 22.22903728 12.37777802 24.84301758 18.56689453 C25.73028319 20.66752447 26.61765084 22.76811132 27.50512695 24.86865234 C29.98893612 30.74760639 32.46991618 36.62773997 34.94818115 42.5090332 C35.87105766 44.69463269 36.79871959 46.8780936 37.72900391 49.06054688 C38.18581543 50.13884766 38.64262695 51.21714844 39.11328125 52.328125 C39.48880127 53.20887695 39.86432129 54.08962891 40.2512207 54.99707031 C41 57 41 57 41 59 C35.72 59 30.44 59 25 59 C23.68 56.03 22.36 53.06 21 50 C12.42 50 3.84 50 -5 50 C-6.32 52.97 -7.64 55.94 -9 59 C-14.28 59 -19.56 59 -25 59 C-20.37900369 46.51844577 -15.01992727 34.3776441 -9.6875 22.1875 C-8.74648828 20.03071086 -7.80573097 17.8738107 -6.86523438 15.71679688 C-4.57975461 10.47657978 -2.29083531 5.23787793 0 0 Z " fill="#282721" transform="translate(641,797)"/>
<path d="M0 0 C0.33 0 0.66 0 1 0 C1 5.94 1 11.88 1 18 C6.94 18 12.88 18 19 18 C19 23.94 19 29.88 19 36 C24.94 36 30.88 36 37 36 C37 42.27 37 48.54 37 55 C31.06 55 25.12 55 19 55 C19 61.27 19 67.54 19 74 C13.06 74 7.12 74 1 74 C1 79.94 1 85.88 1 92 C-5.27 92 -11.54 92 -18 92 C-18 86.06 -18 80.12 -18 74 C-12.06 74 -6.12 74 0 74 C0 67.73 0 61.46 0 55 C-5.94 55 -11.88 55 -18 55 C-18 48.73 -18 42.46 -18 36 C-12.06 36 -6.12 36 0 36 C0 24.12 0 12.24 0 0 Z " fill="#F6E9CF" transform="translate(586,441)"/>
<path d="M0 0 C4.95 0 9.9 0 15 0 C15 7.92 15 15.84 15 24 C22.92 24 30.84 24 39 24 C39 16.08 39 8.16 39 0 C44.28 0 49.56 0 55 0 C55 19.47 55 38.94 55 59 C50.05 59 45.1 59 40 59 C40 51.41 40 43.82 40 36 C31.75 36 23.5 36 15 36 C15 43.59 15 51.18 15 59 C10.05 59 5.1 59 0 59 C0 39.53 0 20.06 0 0 Z " fill="#25251F" transform="translate(476,797)"/>
<path d="M0 0 C15.51 0 31.02 0 47 0 C47 3.96 47 7.92 47 12 C36.77 12 26.54 12 16 12 C16 15.63 16 19.26 16 23 C25.24 23 34.48 23 44 23 C44 26.96 44 30.92 44 35 C34.76 35 25.52 35 16 35 C16 38.96 16 42.92 16 47 C26.56 47 37.12 47 48 47 C48 50.96 48 54.92 48 59 C32.16 59 16.32 59 0 59 C0 39.53 0 20.06 0 0 Z " fill="#262620" transform="translate(718,915)"/>
<path d="M0 0 C15.51 0 31.02 0 47 0 C47 3.96 47 7.92 47 12 C36.77 12 26.54 12 16 12 C16 15.63 16 19.26 16 23 C25.24 23 34.48 23 44 23 C44 26.96 44 30.92 44 35 C34.76 35 25.52 35 16 35 C16 38.96 16 42.92 16 47 C26.56 47 37.12 47 48 47 C48 50.96 48 54.92 48 59 C32.16 59 16.32 59 0 59 C0 39.53 0 20.06 0 0 Z " fill="#272721" transform="translate(542,797)"/>
<path d="M0 0 C15.51 0 31.02 0 47 0 C47 3.96 47 7.92 47 12 C36.77 12 26.54 12 16 12 C16 15.63 16 19.26 16 23 C25.24 23 34.48 23 44 23 C44 26.96 44 30.92 44 35 C34.43 35 24.86 35 15 35 C15 38.96 15 42.92 15 47 C25.56 47 36.12 47 47 47 C47 50.96 47 54.92 47 59 C31.49 59 15.98 59 0 59 C0 39.53 0 20.06 0 0 Z " fill="#25251F" transform="translate(878,797)"/>
<path d="M0 0 C15.51 0 31.02 0 47 0 C47 3.96 47 7.92 47 12 C36.44 12 25.88 12 15 12 C15 15.63 15 19.26 15 23 C24.57 23 34.14 23 44 23 C44 26.96 44 30.92 44 35 C34.43 35 24.86 35 15 35 C15 38.96 15 42.92 15 47 C25.56 47 36.12 47 47 47 C47 50.96 47 54.92 47 59 C31.49 59 15.98 59 0 59 C0 39.53 0 20.06 0 0 Z " fill="#25251F" transform="translate(923,915)"/>
<path d="M0 0 C5.28 0 10.56 0 16 0 C16.01458252 1.1552417 16.02916504 2.3104834 16.04418945 3.50073242 C16.10226822 7.79677912 16.1795005 12.09230694 16.26245117 16.38793945 C16.29565549 18.2452755 16.32370141 20.10271137 16.34643555 21.96020508 C16.38006442 24.63405798 16.43238374 27.30699993 16.48828125 29.98046875 C16.49467117 30.80773972 16.5010611 31.63501068 16.50764465 32.48735046 C16.62545301 37.13222458 17.021655 40.21212791 20 44 C23.63096992 46.50745259 26.65278071 46.18663155 30.875 45.6171875 C34.11320256 44.67668014 35.34006328 42.83572522 37 40 C38.63657754 36.72684491 38.2430807 33.09377769 38.31640625 29.4921875 C38.33718735 28.65156769 38.35796844 27.81094788 38.37937927 26.94485474 C38.44485439 24.25498765 38.5037502 21.56502157 38.5625 18.875 C38.60568716 17.05337511 38.64930152 15.23176029 38.69335938 13.41015625 C38.80053368 8.94020606 38.90180685 4.47015614 39 0 C43.95 0 48.9 0 54 0 C54.12448527 5.6558447 54.21475374 11.31087539 54.2746582 16.96777344 C54.29965487 18.88816232 54.33366412 20.80845751 54.37719727 22.72851562 C54.86305975 44.72379622 54.86305975 44.72379622 47.2434082 52.88037109 C40.74610095 59.13166475 33.87844393 60.5547932 25.07080078 60.48266602 C17.01958601 60.20648089 11.10881771 57.53922214 5.5625 51.75 C0.57222937 45.03663064 -0.44976944 37.75831813 -0.29296875 29.58984375 C-0.28872391 28.73693253 -0.28447906 27.8840213 -0.28010559 27.00526428 C-0.2634863 24.3156705 -0.22586775 21.62686231 -0.1875 18.9375 C-0.17243143 17.0996203 -0.15874686 15.26172869 -0.14648438 13.42382812 C-0.11363805 8.94892204 -0.06197498 4.4745936 0 0 Z " fill="#272721" transform="translate(505,915)"/>
<path d="M0 0 C2.2734375 1.38671875 2.2734375 1.38671875 3.2734375 4.38671875 C2.27734375 6.8671875 2.27734375 6.8671875 0.8359375 9.57421875 C0.36285156 10.47527344 -0.11023438 11.37632812 -0.59765625 12.3046875 C-0.97019531 12.99175781 -1.34273437 13.67882812 -1.7265625 14.38671875 C-5.28154991 13.78685409 -8.25863155 12.80279748 -11.5390625 11.32421875 C-16.24642753 9.38216681 -19.66779475 8.93504306 -24.7265625 9.38671875 C-25.7165625 9.88171875 -25.7165625 9.88171875 -26.7265625 10.38671875 C-26.7265625 12.36671875 -26.7265625 14.34671875 -26.7265625 16.38671875 C-25.5303125 16.77859375 -24.3340625 17.17046875 -23.1015625 17.57421875 C-21.88146484 17.98994141 -21.88146484 17.98994141 -20.63671875 18.4140625 C-18.50895859 19.12521992 -16.36891486 19.79991586 -14.22265625 20.453125 C-6.6931404 22.87247103 -2.13444008 24.7119327 2.2734375 31.38671875 C4.24779962 35.33544299 3.71173443 40.08288642 3.2734375 44.38671875 C0.40550343 50.22880666 -3.71316529 53.77313484 -9.7265625 56.13671875 C-20.02833122 59.22895779 -30.04197132 57.69863488 -39.7265625 53.38671875 C-42.53658939 51.85358197 -45.0891285 50.21263459 -47.7265625 48.38671875 C-46.41594659 44.15242119 -44.78299991 40.31264471 -42.7265625 36.38671875 C-39.1212977 37.05687385 -36.45188332 38.63392268 -33.2890625 40.44921875 C-26.67415412 43.86678547 -21.03952893 44.02365454 -13.7265625 43.38671875 C-13.30909642 40.51307084 -13.30909642 40.51307084 -13.7265625 37.38671875 C-17.39200423 34.2275929 -22.02044335 33.33107078 -26.6015625 32.07421875 C-33.83443706 29.94738389 -38.91642782 27.78519042 -43.1640625 21.13671875 C-44.32621169 15.45510048 -44.67258062 10.39227715 -42.1640625 5.07421875 C-31.16373079 -7.05435211 -14.21503036 -5.96171928 0 0 Z " fill="#282721" transform="translate(199.7265625,799.61328125)"/>
<path d="M0 0 C5.94 0 11.88 0 18 0 C18 5.94 18 11.88 18 18 C24.27 18 30.54 18 37 18 C37 12.06 37 6.12 37 0 C43.27 0 49.54 0 56 0 C56 5.94 56 11.88 56 18 C74.15 18 92.3 18 111 18 C111 18.33 111 18.66 111 19 C98.79 19 86.58 19 74 19 C74 24.94 74 30.88 74 37 C67.73 37 61.46 37 55 37 C55 31.06 55 25.12 55 19 C49.06 19 43.12 19 37 19 C37 24.94 37 30.88 37 37 C24.79 37 12.58 37 0 37 C0 31.06 0 25.12 0 19 C-6.27 19 -12.54 19 -19 19 C-19 18.67 -19 18.34 -19 18 C-12.73 18 -6.46 18 0 18 C0 12.06 0 6.12 0 0 Z " fill="#060605" transform="translate(531,106)"/>
<path d="M0 0 C6.27 0 12.54 0 19 0 C19 12.21 19 24.42 19 37 C25.27 37 31.54 37 38 37 C38 42.94 38 48.88 38 55 C43.94 55 49.88 55 56 55 C56 61.27 56 67.54 56 74 C49.73 74 43.46 74 37 74 C37 67.73 37 61.46 37 55 C24.79 55 12.58 55 0 55 C0 36.85 0 18.7 0 0 Z " fill="#070606" transform="translate(456,218)"/>
<path d="M0 0 C5.94 0 11.88 0 18 0 C18 5.94 18 11.88 18 18 C23.87883003 17.96042231 23.87883003 17.96042231 29.75756836 17.90991211 C30.48596924 17.90741455 31.21437012 17.90491699 31.96484375 17.90234375 C32.7137085 17.89710693 33.46257324 17.89187012 34.23413086 17.88647461 C36 18 36 18 37 19 C37.0935919 20.71865409 37.11744611 22.44115744 37.11352539 24.16235352 C37.11344986 25.26341934 37.11337433 26.36448517 37.11329651 27.49891663 C37.10813522 28.6968132 37.10297394 29.89470978 37.09765625 31.12890625 C37.0962413 32.34827377 37.09482635 33.5676413 37.09336853 34.82395935 C37.08774967 38.7368307 37.07519396 42.64964581 37.0625 46.5625 C37.05748743 49.20768147 37.0529241 51.85286383 37.04882812 54.49804688 C37.03777411 60.99871974 37.02049683 67.49935032 37 74 C30.73 74 24.46 74 18 74 C18 68.06 18 62.12 18 56 C12.06 56 6.12 56 0 56 C0 49.73 0 43.46 0 37 C5.94 37 11.88 37 18 37 C18 31.06 18 25.12 18 19 C12.06 19 6.12 19 0 19 C0 12.73 0 6.46 0 0 Z " fill="#090908" transform="translate(810,459)"/>
<path d="M0 0 C5.94 0 11.88 0 18 0 C18 5.94 18 11.88 18 18 C24.27 18 30.54 18 37 18 C37 12.06 37 6.12 37 0 C42.94 0 48.88 0 55 0 C55 6.27 55 12.54 55 19 C49.06 19 43.12 19 37 19 C37 31.21 37 43.42 37 56 C30.73 56 24.46 56 18 56 C18 49.73 18 43.46 18 37 C12.06 37 6.12 37 0 37 C0 24.79 0 12.58 0 0 Z " fill="#060605" transform="translate(624,236)"/>
<path d="M0 0 C6.27 0 12.54 0 19 0 C19 24.42 19 48.84 19 74 C12.73 74 6.46 74 0 74 C0 67.73 0 61.46 0 55 C-5.94 55 -11.88 55 -18 55 C-18 49.06 -18 43.12 -18 37 C-12.06 37 -6.12 37 0 37 C0 24.79 0 12.58 0 0 Z " fill="#020101" transform="translate(679,162)"/>
<path d="M0 0 C2.19073525 1.55287057 4.04349209 3.14646619 6 5 C5.40716379 8.39192363 4.23256811 10.2107757 1.9375 12.75 C1.38964844 13.36359375 0.84179688 13.9771875 0.27734375 14.609375 C-0.14417969 15.06828125 -0.56570312 15.5271875 -1 16 C-3.56324611 14.76831031 -5.75348126 13.48763274 -8.125 11.875 C-12.60669063 9.3112802 -16.96670885 9.19300952 -22 10 C-26.38011333 12.02783025 -29.09205865 14.59701008 -31.30078125 18.94921875 C-32.94977298 23.78564701 -33.00093736 28.57149624 -31.046875 33.3125 C-28.73214376 37.29735378 -26.43864859 40.38594597 -22 42 C-15.34689522 43.16396266 -10.92985245 41.34860584 -5.26171875 37.8984375 C-3 37 -3 37 -0.87890625 37.65625 C2.0119708 39.72373795 3.81308748 42.20561178 6 45 C4.49919394 49.50241818 0.94208539 51.73443368 -3 54 C-11.05554316 57.88888291 -20.17343124 58.3592475 -28.75 55.875 C-36.1303042 53.01379511 -42.30670986 48.05082663 -46 41 C-49.6347004 32.4408668 -50.57275684 23.58062557 -47.375 14.75 C-43.28173612 5.71905767 -36.91466549 0.48415951 -27.875 -3.3125 C-18.09600182 -5.04748355 -8.77218955 -5.02874602 0 0 Z " fill="#272721" transform="translate(256,800)"/>
<path d="M0 0 C2.7732518 1.5918968 5.14611343 3.42329619 7.5859375 5.484375 C6.22223451 8.47657768 4.63685667 10.77464029 2.4609375 13.234375 C1.92210937 13.84796875 1.38328125 14.4615625 0.828125 15.09375 C0.41820312 15.55265625 0.00828125 16.0115625 -0.4140625 16.484375 C-2.97730861 15.25268531 -5.16754376 13.97200774 -7.5390625 12.359375 C-12.02463072 9.79343705 -16.37687721 9.68508609 -21.4140625 10.484375 C-26.35146091 12.67877429 -28.60316107 15.59620872 -30.71875 20.4140625 C-32.6946975 26.29750169 -31.29843368 31.09002304 -28.66796875 36.4609375 C-26.68896714 39.65446658 -24.85120349 40.99278551 -21.4140625 42.484375 C-15.35537158 43.43519146 -10.8997669 42.2272272 -5.4140625 39.484375 C-3.7640625 38.824375 -2.1140625 38.164375 -0.4140625 37.484375 C2.2259375 40.124375 4.8659375 42.764375 7.5859375 45.484375 C4.57687672 51.50249655 -0.44560463 53.88900956 -6.6015625 56.296875 C-14.76208267 58.7492593 -23.71200144 58.7906632 -31.3515625 54.81640625 C-39.23098991 49.72760938 -44.86597 43.66610917 -47.4140625 34.484375 C-48.43008872 26.2784081 -48.79685221 17.3627873 -43.9609375 10.33984375 C-43.19523438 9.42138672 -43.19523438 9.42138672 -42.4140625 8.484375 C-41.88296875 7.84113281 -41.351875 7.19789063 -40.8046875 6.53515625 C-29.96641789 -5.32230843 -14.08694412 -6.39239481 0 0 Z " fill="#272721" transform="translate(908.4140625,917.515625)"/>
<path d="M0 0 C5.28 0 10.56 0 16 0 C19.61217687 8.44122184 22.80556153 16.93047966 25.75 25.625 C26.53530334 27.93008131 27.32170342 30.23478937 28.109375 32.5390625 C28.44936523 33.54146973 28.78935547 34.54387695 29.13964844 35.57666016 C29.93301525 37.96785974 29.93301525 37.96785974 31 40 C35.62 26.8 40.24 13.6 45 0 C50.28 0 55.56 0 61 0 C58.9508446 7.14617685 56.54598097 14.02626576 53.8046875 20.93359375 C53.41177521 21.93334732 53.01886292 22.93310089 52.61404419 23.96315002 C51.37146674 27.12276707 50.12344374 30.28019687 48.875 33.4375 C47.62056057 36.62023737 46.36724502 39.80341424 45.11453247 42.98683167 C44.33785109 44.95944233 43.55996036 46.93157736 42.7807312 48.90318298 C42.25480881 50.2358596 42.25480881 50.2358596 41.71826172 51.59545898 C41.40976288 52.37582016 41.10126404 53.15618134 40.78341675 53.96018982 C40.14450969 55.62373496 39.56352326 57.30943022 39 59 C33.39 59 27.78 59 22 59 C21.5467334 57.83654053 21.0934668 56.67308105 20.62646484 55.47436523 C18.91620314 51.0849415 17.20505045 46.69586554 15.49365234 42.30688477 C14.75838986 40.42090922 14.02335695 38.53484415 13.28857422 36.64868164 C12.22165934 33.9100727 11.15387329 31.17180472 10.0859375 28.43359375 C9.73819275 27.54054535 9.390448 26.64749695 9.03216553 25.72738647 C7.42677954 21.61339 5.80774232 17.50667924 4.13769531 13.41845703 C3.85527985 12.72502701 3.57286438 12.03159698 3.28189087 11.31715393 C2.53192496 9.48304976 1.77526044 7.65168858 1.01806641 5.82055664 C0 3 0 3 0 0 Z " fill="#272721" transform="translate(770,915)"/>
<path d="M0 0 C5.61 0 11.22 0 17 0 C20.40890811 8.26739864 23.36326716 16.66503728 26.25 25.125 C26.71330897 26.47664228 27.17684911 27.82820535 27.640625 29.1796875 C28.7630775 32.45221801 29.88241753 35.72580267 31 39 C33.35364157 35.46953765 34.63060852 31.79970372 36.0390625 27.83203125 C36.32478119 27.03721848 36.61049988 26.2424057 36.90487671 25.42350769 C37.81540318 22.88785548 38.72026512 20.35022373 39.625 17.8125 C40.24181516 16.09166337 40.85899829 14.37095858 41.4765625 12.65039062 C42.98864696 8.43511103 44.49565477 4.21804744 46 0 C51.28 0 56.56 0 62 0 C59.74863593 6.94716891 57.22933475 13.75574705 54.5859375 20.5625 C54.17082916 21.635 53.75572083 22.7075 53.32803345 23.8125 C52.45673139 26.06177284 51.58434946 28.31062764 50.7109375 30.55908203 C49.36883317 34.01588364 48.03188889 37.47465157 46.6953125 40.93359375 C45.8466632 43.12251567 44.99771561 45.31132198 44.1484375 47.5 C43.74740814 48.53842041 43.34637878 49.57684082 42.93319702 50.64672852 C42.56256134 51.59862061 42.19192566 52.5505127 41.81005859 53.53125 C41.48379486 54.37236328 41.15753113 55.21347656 40.82138062 56.08007812 C40 58 40 58 39 59 C36.30345146 59.07319621 33.63308542 59.09242537 30.9375 59.0625 C29.79958008 59.05573242 29.79958008 59.05573242 28.63867188 59.04882812 C26.75908129 59.0370068 24.87953101 59.01907078 23 59 C17.54697863 45.42824355 12.13002821 31.84236748 6.75888062 18.23800659 C6.16866749 16.74357303 5.57786553 15.24937189 4.98648071 13.75540161 C4.15334454 11.65010282 3.32244873 9.54393394 2.4921875 7.4375 C2.01120605 6.21933594 1.53022461 5.00117187 1.03466797 3.74609375 C0 1 0 1 0 0 Z " fill="#272721" transform="translate(810,797)"/>
<path d="M0 0 C24.42 0 48.84 0 74 0 C74 5.94 74 11.88 74 18 C61.79 18.33 49.58 18.66 37 19 C36.67 24.94 36.34 30.88 36 37 C30.06 37 24.12 37 18 37 C18 30.73 18 24.46 18 18 C12.06 18 6.12 18 0 18 C0 12.06 0 6.12 0 0 Z " fill="#000000" transform="translate(364,459)"/>
<path d="M0 0 C6.27 0 12.54 0 19 0 C19 12.21 19 24.42 19 37 C37.15 37 55.3 37 74 37 C74 37.33 74 37.66 74 38 C49.58 38 25.16 38 0 38 C0 43.94 0 49.88 0 56 C-5.94 56 -11.88 56 -18 56 C-18 43.79 -18 31.58 -18 19 C-12.06 19 -6.12 19 0 19 C0 12.73 0 6.46 0 0 Z " fill="#090908" transform="translate(772,310)"/>
<path d="M0 0 C4.95 0 9.9 0 15 0 C15.67546875 1.24136719 16.3509375 2.48273437 17.046875 3.76171875 C17.94766503 5.4037839 18.84872072 7.04570333 19.75 8.6875 C20.1934375 9.50412109 20.636875 10.32074219 21.09375 11.16210938 C21.75117188 12.35610352 21.75117188 12.35610352 22.421875 13.57421875 C22.81987305 14.30213623 23.21787109 15.03005371 23.62792969 15.7800293 C25.20504164 18.33175153 27.12606391 20.65757988 29 23 C33.29 15.41 37.58 7.82 42 0 C46.95 0 51.9 0 57 0 C54.74977975 6.75066075 54.74977975 6.75066075 53.22827148 9.6027832 C52.89129745 10.23976639 52.55432343 10.87674957 52.20713806 11.53303528 C51.84874344 12.19889145 51.49034882 12.86474762 51.12109375 13.55078125 C50.74896255 14.25019333 50.37683136 14.94960541 49.99342346 15.67021179 C49.21142062 17.13783258 48.42719851 18.60427282 47.64086914 20.06958008 C46.43325332 22.32041525 45.23268328 24.57489867 44.03320312 26.83007812 C43.27123915 28.25802912 42.5088833 29.6857711 41.74609375 31.11328125 C41.3856749 31.78925858 41.02525604 32.4652359 40.65391541 33.16169739 C38.11670274 37.88329726 38.11670274 37.88329726 37 39 C36.84344973 40.48638992 36.74933057 41.97949127 36.68359375 43.47265625 C36.62075195 44.82133789 36.62075195 44.82133789 36.55664062 46.19726562 C36.51732422 47.14279297 36.47800781 48.08832031 36.4375 49.0625 C36.37272461 50.4865918 36.37272461 50.4865918 36.30664062 51.93945312 C36.20020868 54.29278176 36.09956846 56.64637099 36 59 C31.05 59 26.1 59 21 59 C21.11794922 57.37771484 21.11794922 57.37771484 21.23828125 55.72265625 C21.72627755 39.84346733 14.75615314 28.42511809 7 15 C5.84693093 12.91805768 4.71028095 10.82870332 3.58447266 8.73193359 C2.76162305 7.20045684 1.91887306 5.67971593 1.07421875 4.16015625 C0 2 0 2 0 0 Z " fill="#262620" transform="translate(375,915)"/>
<path d="M0 0 C18.48 0 36.96 0 56 0 C56 6.27 56 12.54 56 19 C49.73 19 43.46 19 37 19 C37 24.94 37 30.88 37 37 C31.06 37 25.12 37 19 37 C19 31.06 19 25.12 19 19 C12.73 19 6.46 19 0 19 C0 12.73 0 6.46 0 0 Z " fill="#030302" transform="translate(252,533)"/>
<path d="M0 0 C12.21 0 24.42 0 37 0 C37 6.27 37 12.54 37 19 C42.94 19 48.88 19 55 19 C55 24.94 55 30.88 55 37 C43.12 37 31.24 37 19 37 C19 31.06 19 25.12 19 19 C12.73 19 6.46 19 0 19 C0 12.73 0 6.46 0 0 Z " fill="#020202" transform="translate(345,403)"/>
<path d="M0 0 C5.94 0 11.88 0 18 0 C18 5.94 18 11.88 18 18 C24.27 18 30.54 18 37 18 C37 30.21 37 42.42 37 55 C31.06 55 25.12 55 19 55 C19 49.06 19 43.12 19 37 C12.73 37 6.46 37 0 37 C0 24.79 0 12.58 0 0 Z " fill="#FBEED3" transform="translate(475,218)"/>
<path d="M0 0 C11.88 0 23.76 0 36 0 C36 18.48 36 36.96 36 56 C30.06 56 24.12 56 18 56 C18 43.46 18 30.92 18 18 C12.06 18 6.12 18 0 18 C0 12.06 0 6.12 0 0 Z " fill="#000000" transform="translate(810,552)"/>
<path d="M0 0 C16.83 0 33.66 0 51 0 C51 3.96 51 7.92 51 12 C45.06 12 39.12 12 33 12 C33 27.51 33 43.02 33 59 C28.05 59 23.1 59 18 59 C18 43.49 18 27.98 18 12 C12.06 12 6.12 12 0 12 C0 8.04 0 4.08 0 0 Z " fill="#24241E" transform="translate(419,797)"/>
<path d="M0 0 C0.33 0 0.66 0 1 0 C1 12.21 1 24.42 1 37 C6.94 37 12.88 37 19 37 C19 42.94 19 48.88 19 55 C13.06 55 7.12 55 1 55 C1 61.27 1 67.54 1 74 C-5.27 74 -11.54 74 -18 74 C-18 67.73 -18 61.46 -18 55 C-12.06 55 -6.12 55 0 55 C0 49.06 0 43.12 0 37 C-5.94 37 -11.88 37 -18 37 C-18 30.73 -18 24.46 -18 18 C-12.06 18 -6.12 18 0 18 C0 12.06 0 6.12 0 0 Z " fill="#E0D5BD" transform="translate(363,255)"/>
<path d="M0 0 C6.27 0 12.54 0 19 0 C19 12.54 19 25.08 19 38 C6.79 38 -5.42 38 -18 38 C-18 31.73 -18 25.46 -18 19 C-12.06 19 -6.12 19 0 19 C0 12.73 0 6.46 0 0 Z " fill="#F3E6CC" transform="translate(549,217)"/>
<path d="M0 0 C12.21 0 24.42 0 37 0 C37 5.94 37 11.88 37 18 C43.27 18 49.54 18 56 18 C56 24.27 56 30.54 56 37 C49.73 37 43.46 37 37 37 C37 31.06 37 25.12 37 19 C24.79 19 12.58 19 0 19 C0 12.73 0 6.46 0 0 Z " fill="#000000" transform="translate(382,106)"/>
<path d="M0 0 C5.94 0 11.88 0 18 0 C18 6.27 18 12.54 18 19 C24.27 19 30.54 19 37 19 C37 25.27 37 31.54 37 38 C24.79 38 12.58 38 0 38 C0 25.46 0 12.92 0 0 Z " fill="#050504" transform="translate(661,310)"/>
<path d="M0 0 C6.27 0 12.54 0 19 0 C19 5.94 19 11.88 19 18 C24.94 18 30.88 18 37 18 C37 30.21 37 42.42 37 55 C30.73 55 24.46 55 18 55 C18 42.79 18 30.58 18 18 C12.06 18 6.12 18 0 18 C0 12.06 0 6.12 0 0 Z " fill="#000000" transform="translate(698,255)"/>
<path d="M0 0 C12.21 0 24.42 0 37 0 C37 6.27 37 12.54 37 19 C30.73 19 24.46 19 18 19 C18 24.94 18 30.88 18 37 C12.06 37 6.12 37 0 37 C0 24.79 0 12.58 0 0 Z " fill="#FAEDD3" transform="translate(494,366)"/>
<path d="M0 0 C12.21 0 24.42 0 37 0 C37 12.21 37 24.42 37 37 C30.73 37 24.46 37 18 37 C18 30.73 18 24.46 18 18 C12.06 18 6.12 18 0 18 C0 12.06 0 6.12 0 0 Z " fill="#FAEDD3" transform="translate(494,199)"/>
<path d="M0 0 C5.94 0 11.88 0 18 0 C18 6.27 18 12.54 18 19 C24.27 19 30.54 19 37 19 C37 24.94 37 30.88 37 37 C24.79 37 12.58 37 0 37 C0 24.79 0 12.58 0 0 Z " fill="#FBEED4" transform="translate(271,459)"/>
<path d="M0 0 C5.94 0 11.88 0 18 0 C18 18.15 18 36.3 18 55 C12.06 55 6.12 55 0 55 C0 36.85 0 18.7 0 0 Z " fill="#000000" transform="translate(828,255)"/>
<path d="M0 0 C11.88 0 23.76 0 36 0 C36 5.94 36 11.88 36 18 C30.06 18 24.12 18 18 18 C18 24.27 18 30.54 18 37 C12.06 37 6.12 37 0 37 C0 24.79 0 12.58 0 0 Z " fill="#FDF0D5" transform="translate(587,199)"/>
<path d="M0 0 C5.94 0 11.88 0 18 0 C18 11.88 18 23.76 18 36 C6.12 36 -5.76 36 -18 36 C-18 30.06 -18 24.12 -18 18 C-12.06 18 -6.12 18 0 18 C0 12.06 0 6.12 0 0 Z " fill="#010100" transform="translate(419,348)"/>
<path d="M0 0 C5.28 0 10.56 0 16 0 C16 19.47 16 38.94 16 59 C10.72 59 5.44 59 0 59 C0 39.53 0 20.06 0 0 Z " fill="#2B2A24" transform="translate(837,915)"/>
<path d="M0 0 C5.28 0 10.56 0 16 0 C16 19.47 16 38.94 16 59 C10.72 59 5.44 59 0 59 C0 39.53 0 20.06 0 0 Z " fill="#2B2A24" transform="translate(264,915)"/>
<path d="M0 0 C4.42484878 2.21242439 7.19476657 4.94799616 10 9 C11.7524789 14.25743671 12.10508056 20.12297993 10.09375 25.359375 C7.51973583 29.74839916 4.68894996 32.83586925 0 35 C-4.96444906 35.96889805 -8.89855183 35.41983212 -13.3125 32.9375 C-17.11203179 30.21488141 -19.63421304 27.52151831 -21 23 C-21.88193306 17.3808265 -21.75685368 12.56144359 -18.875 7.5625 C-13.80970571 0.6911955 -8.34334148 -1.3452619 0 0 Z " fill="#F9ECD1" transform="translate(145,927)"/>
<path d="M0 0 C3.86012849 1.31424608 6.55896705 3.55896705 9.4375 6.4375 C12.24476943 12.8380743 11.99975811 19.88964145 9.875 26.5 C7.16449825 30.11400234 4.08519673 32.95740163 0 35 C-4.65048294 35.56735892 -8.09730577 35.4598631 -12.3125 33.3125 C-17.98754366 28.4293229 -20.55902382 24.04228164 -21.375 16.5625 C-20.75801185 10.70111254 -18.25116267 6.85760934 -13.875 3.125 C-9.1798094 -0.34535827 -5.74580443 -0.66877396 0 0 Z " fill="#F9ECD1" transform="translate(471,927)"/>
<path d="M0 0 C3.86012849 1.31424608 6.55896705 3.55896705 9.4375 6.4375 C12.24476943 12.8380743 11.99975811 19.88964145 9.875 26.5 C7.16449825 30.11400234 4.08519673 32.95740163 0 35 C-4.65048294 35.56735892 -8.09730577 35.4598631 -12.3125 33.3125 C-17.98754366 28.4293229 -20.55902382 24.04228164 -21.375 16.5625 C-20.75801185 10.70111254 -18.25116267 6.85760934 -13.875 3.125 C-9.1798094 -0.34535827 -5.74580443 -0.66877396 0 0 Z " fill="#F9ECD1" transform="translate(781,809)"/>
<path d="M0 0 C15.44736842 0 15.44736842 0 21.8125 5.375 C25.61292458 9.9355095 26.4681629 13.81889117 26.3125 19.65625 C25.79109124 23.56681572 24.46913066 26.91688765 22 30 C16 34 16 34 0 34 C0 22.78 0 11.56 0 0 Z " fill="#F9ECD1" transform="translate(669,927)"/>
<path d="M0 0 C6.27 0 12.54 0 19 0 C19 12.54 19 25.08 19 38 C12.73 38 6.46 38 0 38 C0 25.46 0 12.92 0 0 Z " fill="#0B0A09" transform="translate(772,477)"/>
<path d="M0 0 C5.94 0 11.88 0 18 0 C18 5.94 18 11.88 18 18 C24.27 18 30.54 18 37 18 C37 24.27 37 30.54 37 37 C30.73 37 24.46 37 18 37 C18 31.06 18 25.12 18 19 C12.06 19 6.12 19 0 19 C0 12.73 0 6.46 0 0 Z " fill="#0F0E0C" transform="translate(438,682)"/>
<path d="M0 0 C6.27 0 12.54 0 19 0 C19 12.21 19 24.42 19 37 C12.73 37 6.46 37 0 37 C0 24.79 0 12.58 0 0 Z " fill="#030302" transform="translate(679,682)"/>
<path d="M0 0 C12.21 0 24.42 0 37 0 C37 6.27 37 12.54 37 19 C24.79 19 12.58 19 0 19 C0 12.73 0 6.46 0 0 Z " fill="#F4E8CE" transform="translate(419,626)"/>
<path d="M0 0 C6.27 0 12.54 0 19 0 C19 12.21 19 24.42 19 37 C12.73 37 6.46 37 0 37 C0 24.79 0 12.58 0 0 Z " fill="#060605" transform="translate(419,552)"/>
<path d="M0 0 C6.27 0 12.54 0 19 0 C19 12.21 19 24.42 19 37 C12.73 37 6.46 37 0 37 C0 24.79 0 12.58 0 0 Z " fill="#F3E6CC" transform="translate(512,403)"/>
<path d="M0 0 C12.21 0 24.42 0 37 0 C37 6.27 37 12.54 37 19 C24.79 19 12.58 19 0 19 C0 12.73 0 6.46 0 0 Z " fill="#F6E9CF" transform="translate(252,403)"/>
<path d="M0 0 C12.21 0 24.42 0 37 0 C37 5.94 37 11.88 37 18 C24.79 18 12.58 18 0 18 C0 12.06 0 6.12 0 0 Z " fill="#FBEED3" transform="translate(549,441)"/>
<path d="M0 0 C5.94 0 11.88 0 18 0 C18 12.21 18 24.42 18 37 C12.06 37 6.12 37 0 37 C0 24.79 0 12.58 0 0 Z " fill="#FDF0D5" transform="translate(624,422)"/>
<path d="M0 0 C12.21 0 24.42 0 37 0 C37 5.94 37 11.88 37 18 C24.79 18 12.58 18 0 18 C0 12.06 0 6.12 0 0 Z " fill="#010101" transform="translate(419,422)"/>
<path d="M0 0 C5.94 0 11.88 0 18 0 C18 12.21 18 24.42 18 37 C12.06 37 6.12 37 0 37 C0 24.79 0 12.58 0 0 Z " fill="#FBEED3" transform="translate(308,273)"/>
<path d="M0 0 C6.27 0 12.54 0 19 0 C19 6.27 19 12.54 19 19 C13.06 19 7.12 19 1 19 C1 24.94 1 30.88 1 37 C12.88 37 24.76 37 37 37 C37 37.33 37 37.66 37 38 C25.12 38 13.24 38 1 38 C1 43.94 1 49.88 1 56 C0.67 56 0.34 56 0 56 C0 50.06 0 44.12 0 38 C-5.94 38 -11.88 38 -18 38 C-18 37.67 -18 37.34 -18 37 C-12.06 37 -6.12 37 0 37 C0 24.79 0 12.58 0 0 Z " fill="#030302" transform="translate(586,310)"/>
<path d="M0 0 C18.48 0 36.96 0 56 0 C56 6.27 56 12.54 56 19 C49.73 19 43.46 19 37 19 C37 13.06 37 7.12 37 1 C24.79 1 12.58 1 0 1 C0 0.67 0 0.34 0 0 Z " fill="#171613" transform="translate(382,124)"/>
<path d="M0 0 C6.27 0 12.54 0 19 0 C19 5.94 19 11.88 19 18 C24.94 18 30.88 18 37 18 C37 18.33 37 18.66 37 19 C31.06 19 25.12 19 19 19 C19 30.88 19 42.76 19 55 C18.67 55 18.34 55 18 55 C18 42.79 18 30.58 18 18 C12.06 18 6.12 18 0 18 C0 12.06 0 6.12 0 0 Z " fill="#141311" transform="translate(698,255)"/>
<path d="M0 0 C6.27 0 12.54 0 19 0 C19 6.27 19 12.54 19 19 C12.73 19 6.46 19 0 19 C0 12.73 0 6.46 0 0 Z " fill="#090908" transform="translate(716,589)"/>
<path d="M0 0 C6.27 0 12.54 0 19 0 C19 6.27 19 12.54 19 19 C12.73 19 6.46 19 0 19 C0 12.73 0 6.46 0 0 Z " fill="#090908" transform="translate(233,552)"/>
<path d="M0 0 C6.27 0 12.54 0 19 0 C19 6.27 19 12.54 19 19 C12.73 19 6.46 19 0 19 C0 12.73 0 6.46 0 0 Z " fill="#F3E6CC" transform="translate(549,533)"/>
<path d="M0 0 C6.27 0 12.54 0 19 0 C19 6.27 19 12.54 19 19 C12.73 19 6.46 19 0 19 C0 12.73 0 6.46 0 0 Z " fill="#090908" transform="translate(512,496)"/>
<path d="M0 0 C6.27 0 12.54 0 19 0 C19 6.27 19 12.54 19 19 C12.73 19 6.46 19 0 19 C0 12.73 0 6.46 0 0 Z " fill="#090908" transform="translate(456,403)"/>
<path d="M0 0 C3.8053125 -0.12375 3.8053125 -0.12375 7.6875 -0.25 C8.87218872 -0.30462402 8.87218872 -0.30462402 10.08081055 -0.36035156 C13.78291451 -0.41839441 15.68662578 -0.17907099 18.98046875 1.703125 C21.3204405 4.36444684 21.67834361 5.50065918 21.625 9 C21.63789063 9.845625 21.65078125 10.69125 21.6640625 11.5625 C21 14 21 14 18.98046875 16.296875 C15.04536121 18.54550788 12.11707372 18.45424027 7.6875 18.25 C5.150625 18.1675 2.61375 18.085 0 18 C0 12.06 0 6.12 0 0 Z " fill="#F5E8CE" transform="translate(195,927)"/>
<path d="M0 0 C2.206875 -0.04125 4.41375 -0.0825 6.6875 -0.125 C8.54955078 -0.15980469 8.54955078 -0.15980469 10.44921875 -0.1953125 C13.86370861 -0.00749678 16.01567557 0.37609734 19 2 C21.48386059 5.72579089 21.3804212 7.58711402 21 12 C18.8 16.6 18.8 16.6 16 18 C13.28024285 18.07187519 10.59325368 18.0927862 7.875 18.0625 C5.27625 18.041875 2.6775 18.02125 0 18 C0 12.06 0 6.12 0 0 Z " fill="#FAEDD2" transform="translate(585,927)"/>
<path d="M0 0 C5.94 0 11.88 0 18 0 C18 6.27 18 12.54 18 19 C12.06 19 6.12 19 0 19 C0 12.73 0 6.46 0 0 Z " fill="#060605" transform="translate(828,626)"/>
<path d="M0 0 C5.94 0 11.88 0 18 0 C18 6.27 18 12.54 18 19 C12.06 19 6.12 19 0 19 C0 12.73 0 6.46 0 0 Z " fill="#F6E9CF" transform="translate(661,626)"/>
<path d="M0 0 C6.27 0 12.54 0 19 0 C19 5.94 19 11.88 19 18 C12.73 18 6.46 18 0 18 C0 12.06 0 6.12 0 0 Z " fill="#F6E9CF" transform="translate(549,608)"/>
<path d="M0 0 C5.94 0 11.88 0 18 0 C18 6.27 18 12.54 18 19 C12.06 19 6.12 19 0 19 C0 12.73 0 6.46 0 0 Z " fill="#F9ECD2" transform="translate(531,589)"/>
<path d="M0 0 C5.94 0 11.88 0 18 0 C18 6.27 18 12.54 18 19 C12.06 19 6.12 19 0 19 C0 12.73 0 6.46 0 0 Z " fill="#F9ECD2" transform="translate(661,533)"/>
<path d="M0 0 C6.27 0 12.54 0 19 0 C19 5.94 19 11.88 19 18 C12.73 18 6.46 18 0 18 C0 12.06 0 6.12 0 0 Z " fill="#030302" transform="translate(233,515)"/>
<path d="M0 0 C6.27 0 12.54 0 19 0 C19 5.94 19 11.88 19 18 C12.73 18 6.46 18 0 18 C0 12.06 0 6.12 0 0 Z " fill="#F6E9CF" transform="translate(326,478)"/>
<path d="M0 0 C6.27 0 12.54 0 19 0 C19 5.94 19 11.88 19 18 C12.73 18 6.46 18 0 18 C0 12.06 0 6.12 0 0 Z " fill="#030302" transform="translate(679,441)"/>
<path d="M0 0 C6.27 0 12.54 0 19 0 C19 5.94 19 11.88 19 18 C12.73 18 6.46 18 0 18 C0 12.06 0 6.12 0 0 Z " fill="#F9ECD2" transform="translate(289,441)"/>
<path d="M0 0 C6.27 0 12.54 0 19 0 C19 5.94 19 11.88 19 18 C12.73 18 6.46 18 0 18 C0 12.06 0 6.12 0 0 Z " fill="#030302" transform="translate(512,422)"/>
<path d="M0 0 C5.94 0 11.88 0 18 0 C18 6.27 18 12.54 18 19 C12.06 19 6.12 19 0 19 C0 12.73 0 6.46 0 0 Z " fill="#F6E9CF" transform="translate(382,403)"/>
<path d="M0 0 C6.27 0 12.54 0 19 0 C19 5.94 19 11.88 19 18 C12.73 18 6.46 18 0 18 C0 12.06 0 6.12 0 0 Z " fill="#F9ECD2" transform="translate(289,385)"/>
<path d="M0 0 C6.27 0 12.54 0 19 0 C19 5.94 19 11.88 19 18 C12.73 18 6.46 18 0 18 C0 12.06 0 6.12 0 0 Z " fill="#F6E9CF" transform="translate(326,329)"/>
<path d="M0 0 C5.94 0 11.88 0 18 0 C18 6.27 18 12.54 18 19 C12.06 19 6.12 19 0 19 C0 12.73 0 6.46 0 0 Z " fill="#F9ECD2" transform="translate(345,310)"/>
<path d="M0 0 C6.27 0 12.54 0 19 0 C19 5.94 19 11.88 19 18 C12.73 18 6.46 18 0 18 C0 12.06 0 6.12 0 0 Z " fill="#030302" transform="translate(679,292)"/>
<path d="M0 0 C5.94 0 11.88 0 18 0 C18 6.27 18 12.54 18 19 C12.06 19 6.12 19 0 19 C0 12.73 0 6.46 0 0 Z " fill="#060605" transform="translate(791,273)"/>
<path d="M0 0 C6.27 0 12.54 0 19 0 C19 5.94 19 11.88 19 18 C12.73 18 6.46 18 0 18 C0 12.06 0 6.12 0 0 Z " fill="#060605" transform="translate(772,255)"/>
<path d="M0 0 C6.27 0 12.54 0 19 0 C19 5.94 19 11.88 19 18 C12.73 18 6.46 18 0 18 C0 12.06 0 6.12 0 0 Z " fill="#F6E9CF" transform="translate(642,236)"/>
<path d="M0 0 C6.27 0 12.54 0 19 0 C19 5.94 19 11.88 19 18 C12.73 18 6.46 18 0 18 C0 12.06 0 6.12 0 0 Z " fill="#060605" transform="translate(642,218)"/>
<path d="M0 0 C6.27 0 12.54 0 19 0 C19 5.94 19 11.88 19 18 C12.73 18 6.46 18 0 18 C0 12.06 0 6.12 0 0 Z " fill="#F9ECD2" transform="translate(456,199)"/>
<path d="M0 0 C6.27 0 12.54 0 19 0 C19 5.94 19 11.88 19 18 C12.73 18 6.46 18 0 18 C0 12.06 0 6.12 0 0 Z " fill="#F6E9CF" transform="translate(419,199)"/>
<path d="M0 0 C5.94 0 11.88 0 18 0 C18 5.94 18 11.88 18 18 C12.06 18 6.12 18 0 18 C0 12.06 0 6.12 0 0 Z " fill="#000000" transform="translate(624,701)"/>
<path d="M0 0 C5.94 0 11.88 0 18 0 C18 5.94 18 11.88 18 18 C12.06 18 6.12 18 0 18 C0 12.06 0 6.12 0 0 Z " fill="#FDF0D5" transform="translate(754,682)"/>
<path d="M0 0 C5.94 0 11.88 0 18 0 C18 5.94 18 11.88 18 18 C12.06 18 6.12 18 0 18 C0 12.06 0 6.12 0 0 Z " fill="#000000" transform="translate(438,682)"/>
<path d="M0 0 C5.94 0 11.88 0 18 0 C18 5.94 18 11.88 18 18 C12.06 18 6.12 18 0 18 C0 12.06 0 6.12 0 0 Z " fill="#000000" transform="translate(828,664)"/>
<path d="M0 0 C5.94 0 11.88 0 18 0 C18 5.94 18 11.88 18 18 C12.06 18 6.12 18 0 18 C0 12.06 0 6.12 0 0 Z " fill="#000000" transform="translate(605,664)"/>
<path d="M0 0 C5.94 0 11.88 0 18 0 C18 5.94 18 11.88 18 18 C12.06 18 6.12 18 0 18 C0 12.06 0 6.12 0 0 Z " fill="#000000" transform="translate(587,645)"/>
<path d="M0 0 C5.94 0 11.88 0 18 0 C18 5.94 18 11.88 18 18 C12.06 18 6.12 18 0 18 C0 12.06 0 6.12 0 0 Z " fill="#FDF0D5" transform="translate(661,571)"/>
<path d="M0 0 C5.94 0 11.88 0 18 0 C18 5.94 18 11.88 18 18 C12.06 18 6.12 18 0 18 C0 12.06 0 6.12 0 0 Z " fill="#000000" transform="translate(382,571)"/>
<path d="M0 0 C5.94 0 11.88 0 18 0 C18 5.94 18 11.88 18 18 C12.06 18 6.12 18 0 18 C0 12.06 0 6.12 0 0 Z " fill="#000000" transform="translate(717,515)"/>
<path d="M0 0 C5.94 0 11.88 0 18 0 C18 5.94 18 11.88 18 18 C12.06 18 6.12 18 0 18 C0 12.06 0 6.12 0 0 Z " fill="#FDF0D5" transform="translate(624,515)"/>
<path d="M0 0 C5.94 0 11.88 0 18 0 C18 5.94 18 11.88 18 18 C12.06 18 6.12 18 0 18 C0 12.06 0 6.12 0 0 Z " fill="#FDF0D5" transform="translate(568,515)"/>
<path d="M0 0 C5.94 0 11.88 0 18 0 C18 5.94 18 11.88 18 18 C12.06 18 6.12 18 0 18 C0 12.06 0 6.12 0 0 Z " fill="#FDF0D5" transform="translate(605,478)"/>
<path d="M0 0 C5.94 0 11.88 0 18 0 C18 5.94 18 11.88 18 18 C12.06 18 6.12 18 0 18 C0 12.06 0 6.12 0 0 Z " fill="#000000" transform="translate(587,478)"/>
<path d="M0 0 C5.94 0 11.88 0 18 0 C18 5.94 18 11.88 18 18 C12.06 18 6.12 18 0 18 C0 12.06 0 6.12 0 0 Z " fill="#FDF0D5" transform="translate(568,478)"/>
<path d="M0 0 C5.94 0 11.88 0 18 0 C18 5.94 18 11.88 18 18 C12.06 18 6.12 18 0 18 C0 12.06 0 6.12 0 0 Z " fill="#000000" transform="translate(345,478)"/>
<path d="M0 0 C5.94 0 11.88 0 18 0 C18 5.94 18 11.88 18 18 C12.06 18 6.12 18 0 18 C0 12.06 0 6.12 0 0 Z " fill="#000000" transform="translate(810,459)"/>
<path d="M0 0 C5.94 0 11.88 0 18 0 C18 5.94 18 11.88 18 18 C12.06 18 6.12 18 0 18 C0 12.06 0 6.12 0 0 Z " fill="#FDF0D5" transform="translate(587,459)"/>
<path d="M0 0 C5.94 0 11.88 0 18 0 C18 5.94 18 11.88 18 18 C12.06 18 6.12 18 0 18 C0 12.06 0 6.12 0 0 Z " fill="#FDF0D5" transform="translate(345,459)"/>
<path d="M0 0 C5.94 0 11.88 0 18 0 C18 5.94 18 11.88 18 18 C12.06 18 6.12 18 0 18 C0 12.06 0 6.12 0 0 Z " fill="#000000" transform="translate(828,441)"/>
<path d="M0 0 C5.94 0 11.88 0 18 0 C18 5.94 18 11.88 18 18 C12.06 18 6.12 18 0 18 C0 12.06 0 6.12 0 0 Z " fill="#FDF0D5" transform="translate(531,422)"/>
<path d="M0 0 C5.94 0 11.88 0 18 0 C18 5.94 18 11.88 18 18 C12.06 18 6.12 18 0 18 C0 12.06 0 6.12 0 0 Z " fill="#000000" transform="translate(754,385)"/>
<path d="M0 0 C5.94 0 11.88 0 18 0 C18 5.94 18 11.88 18 18 C12.06 18 6.12 18 0 18 C0 12.06 0 6.12 0 0 Z " fill="#000000" transform="translate(382,385)"/>
<path d="M0 0 C5.94 0 11.88 0 18 0 C18 5.94 18 11.88 18 18 C12.06 18 6.12 18 0 18 C0 12.06 0 6.12 0 0 Z " fill="#FDF0D5" transform="translate(401,348)"/>
<path d="M0 0 C5.94 0 11.88 0 18 0 C18 5.94 18 11.88 18 18 C12.06 18 6.12 18 0 18 C0 12.06 0 6.12 0 0 Z " fill="#000000" transform="translate(382,348)"/>
<path d="M0 0 C5.94 0 11.88 0 18 0 C18 5.94 18 11.88 18 18 C12.06 18 6.12 18 0 18 C0 12.06 0 6.12 0 0 Z " fill="#FDF0D5" transform="translate(382,329)"/>
<path d="M0 0 C5.94 0 11.88 0 18 0 C18 5.94 18 11.88 18 18 C12.06 18 6.12 18 0 18 C0 12.06 0 6.12 0 0 Z " fill="#000000" transform="translate(754,292)"/>
<path d="M0 0 C5.94 0 11.88 0 18 0 C18 5.94 18 11.88 18 18 C12.06 18 6.12 18 0 18 C0 12.06 0 6.12 0 0 Z " fill="#000000" transform="translate(624,292)"/>
<path d="M0 0 C5.94 0 11.88 0 18 0 C18 5.94 18 11.88 18 18 C12.06 18 6.12 18 0 18 C0 12.06 0 6.12 0 0 Z " fill="#FDF0D5" transform="translate(364,292)"/>
<path d="M0 0 C5.94 0 11.88 0 18 0 C18 5.94 18 11.88 18 18 C12.06 18 6.12 18 0 18 C0 12.06 0 6.12 0 0 Z " fill="#000000" transform="translate(661,236)"/>
<path d="M0 0 C5.94 0 11.88 0 18 0 C18 5.94 18 11.88 18 18 C12.06 18 6.12 18 0 18 C0 12.06 0 6.12 0 0 Z " fill="#FDF0D5" transform="translate(661,218)"/>
<path d="M0 0 C5.94 0 11.88 0 18 0 C18 5.94 18 11.88 18 18 C12.06 18 6.12 18 0 18 C0 12.06 0 6.12 0 0 Z " fill="#FDF0D5" transform="translate(624,218)"/>
<path d="M0 0 C5.94 0 11.88 0 18 0 C18 5.94 18 11.88 18 18 C12.06 18 6.12 18 0 18 C0 12.06 0 6.12 0 0 Z " fill="#000000" transform="translate(605,218)"/>
<path d="M0 0 C5.94 0 11.88 0 18 0 C18 5.94 18 11.88 18 18 C12.06 18 6.12 18 0 18 C0 12.06 0 6.12 0 0 Z " fill="#000000" transform="translate(494,218)"/>
<path d="M0 0 C5.94 0 11.88 0 18 0 C18 5.94 18 11.88 18 18 C12.06 18 6.12 18 0 18 C0 12.06 0 6.12 0 0 Z " fill="#000000" transform="translate(382,218)"/>
<path d="M0 0 C5.94 0 11.88 0 18 0 C18 5.94 18 11.88 18 18 C12.06 18 6.12 18 0 18 C0 12.06 0 6.12 0 0 Z " fill="#000000" transform="translate(624,199)"/>
<path d="M0 0 C5.94 0 11.88 0 18 0 C18 5.94 18 11.88 18 18 C12.06 18 6.12 18 0 18 C0 12.06 0 6.12 0 0 Z " fill="#FDF0D5" transform="translate(401,162)"/>
<path d="M0 0 C5.94 0 11.88 0 18 0 C18 5.94 18 11.88 18 18 C12.06 18 6.12 18 0 18 C0 12.06 0 6.12 0 0 Z " fill="#000000" transform="translate(382,162)"/>
<path d="M0 0 C5.94 0 11.88 0 18 0 C18 5.94 18 11.88 18 18 C12.06 18 6.12 18 0 18 C0 12.06 0 6.12 0 0 Z " fill="#000000" transform="translate(401,143)"/>
<path d="M0 0 C5.94 0 11.88 0 18 0 C18 5.94 18 11.88 18 18 C12.06 18 6.12 18 0 18 C0 12.06 0 6.12 0 0 Z " fill="#000000" transform="translate(587,125)"/>
<path d="M0 0 C5.94 0 11.88 0 18 0 C18 5.94 18 11.88 18 18 C12.06 18 6.12 18 0 18 C0 12.06 0 6.12 0 0 Z " fill="#FDF0D5" transform="translate(531,125)"/>
<path d="M0 0 C5.94 0 11.88 0 18 0 C18 5.94 18 11.88 18 18 C12.06 18 6.12 18 0 18 C0 12.06 0 6.12 0 0 Z " fill="#000000" transform="translate(568,106)"/>
<path d="M0 0 C5.94 0 11.88 0 18 0 C18 5.94 18 11.88 18 18 C12.06 18 6.12 18 0 18 C0 12.06 0 6.12 0 0 Z " fill="#000000" transform="translate(531,106)"/>
<path d="M0 0 C0.33 0 0.66 0 1 0 C1 5.94 1 11.88 1 18 C13.21 18 25.42 18 38 18 C38 18.33 38 18.66 38 19 C25.79 19 13.58 19 1 19 C1 37.15 1 55.3 1 74 C31.36 74 61.72 74 93 74 C93 68.06 93 62.12 93 56 C93.33 56 93.66 56 94 56 C94 61.94 94 67.88 94 74 C99.94 74 105.88 74 112 74 C112 74.33 112 74.66 112 75 C106.06 75 100.12 75 94 75 C94 80.94 94 86.88 94 93 C93.67 93 93.34 93 93 93 C93 87.06 93 81.12 93 75 C62.64 75 32.28 75 1 75 C1 80.94 1 86.88 1 93 C0.67 93 0.34 93 0 93 C0 87.06 0 81.12 0 75 C-5.94 75 -11.88 75 -18 75 C-18 74.67 -18 74.34 -18 74 C-12.06 74 -6.12 74 0 74 C0 55.85 0 37.7 0 19 C-5.94 19 -11.88 19 -18 19 C-18 18.67 -18 18.34 -18 18 C-12.06 18 -6.12 18 0 18 C0 12.06 0 6.12 0 0 Z " fill="#7E786A" transform="translate(400,143)"/>
<path d="M0 0 C5.94 0 11.88 0 18 0 C18 5.61 18 11.22 18 17 C12.06 17 6.12 17 0 17 C0 11.39 0 5.78 0 0 Z " fill="#000000" transform="translate(401,404)"/>
<path d="M0 0 C5.94 0 11.88 0 18 0 C18 5.61 18 11.22 18 17 C12.06 17 6.12 17 0 17 C0 11.39 0 5.78 0 0 Z " fill="#000000" transform="translate(494,274)"/>
<path d="M0 0 C0.33 0 0.66 0 1 0 C1 24.42 1 48.84 1 74 C12.88 74 24.76 74 37 74 C37 68.06 37 62.12 37 56 C37.33 56 37.66 56 38 56 C38 61.94 38 67.88 38 74 C62.42 74 86.84 74 112 74 C112 74.33 112 74.66 112 75 C87.58 75 63.16 75 38 75 C38 80.94 38 86.88 38 93 C37.67 93 37.34 93 37 93 C37 87.06 37 81.12 37 75 C25.12 75 13.24 75 1 75 C1 80.94 1 86.88 1 93 C0.67 93 0.34 93 0 93 C0 87.06 0 81.12 0 75 C-18.15 75 -36.3 75 -55 75 C-55 74.67 -55 74.34 -55 74 C-36.85 74 -18.7 74 0 74 C0 49.58 0 25.16 0 0 Z " fill="#7E786A" transform="translate(586,589)"/>
<path d="M0 0 C2.75059381 -0.08107646 5.49879021 -0.14052813 8.25 -0.1875 C9.02730469 -0.21263672 9.80460938 -0.23777344 10.60546875 -0.26367188 C14.11621896 -0.30868149 16.37968048 -0.33572503 19.51171875 1.359375 C21 3 21 3 21.5625 5.4375 C21 8 21 8 18.984375 10.14453125 C15.04705435 12.59247275 12.21069506 12.46019316 7.6875 12.25 C6.57665039 12.22292969 6.57665039 12.22292969 5.44335938 12.1953125 C3.6283429 12.14847337 1.81399834 12.07673789 0 12 C0 8.04 0 4.08 0 0 Z " fill="#F7EAD0" transform="translate(703,832)"/>
<path d="M0 0 C0.33 0 0.66 0 1 0 C1 5.94 1 11.88 1 18 C12.88 18 24.76 18 37 18 C37 18.33 37 18.66 37 19 C25.12 19 13.24 19 1 19 C1 30.88 1 42.76 1 55 C6.94 55 12.88 55 19 55 C19 55.33 19 55.66 19 56 C13.06 56 7.12 56 1 56 C1 61.94 1 67.88 1 74 C0.67 74 0.34 74 0 74 C0 68.06 0 62.12 0 56 C-12.21 56 -24.42 56 -37 56 C-37 55.67 -37 55.34 -37 55 C-31.06 55 -25.12 55 -19 55 C-19 49.06 -19 43.12 -19 37 C-18.67 37 -18.34 37 -18 37 C-18 42.94 -18 48.88 -18 55 C-12.06 55 -6.12 55 0 55 C0 43.12 0 31.24 0 19 C-12.21 19 -24.42 19 -37 19 C-37 18.67 -37 18.34 -37 18 C-24.79 18 -12.58 18 0 18 C0 12.06 0 6.12 0 0 Z " fill="#787265" transform="translate(363,422)"/>
<path d="M0 0 C2.60478883 -0.0809313 5.20706653 -0.14045434 7.8125 -0.1875 C8.55048828 -0.21263672 9.28847656 -0.23777344 10.04882812 -0.26367188 C15.50459477 -0.33773206 15.50459477 -0.33773206 17.98828125 1.35546875 C19.44627981 3.72542008 19.40905458 5.27296948 19 8 C17.98828125 9.64453125 17.98828125 9.64453125 16 11 C13.18872957 11.21714241 10.6116655 11.28284276 7.8125 11.1875 C6.68811523 11.16719727 6.68811523 11.16719727 5.54101562 11.14648438 C3.69370233 11.11118539 1.84675934 11.05737917 0 11 C0 7.37 0 3.74 0 0 Z " fill="#F8EBD1" transform="translate(703,809)"/>
<path d="M0 0 C2.82321865 2.82321865 3.77294537 6.25978203 5.125 9.9375 C5.40214844 10.66646484 5.67929687 11.39542969 5.96484375 12.14648438 C7.10821193 15.21893433 8 17.69539373 8 21 C2.72 21 -2.56 21 -8 21 C-5.72564796 13.81783567 -2.96415819 6.9241798 0 0 Z " fill="#EDE1C7" transform="translate(296,813)"/>
<path d="M0 0 C0.66 0 1.32 0 2 0 C3.1721449 2.95619219 4.33677476 5.91528789 5.5 8.875 C5.83386719 9.71675781 6.16773438 10.55851563 6.51171875 11.42578125 C6.98544922 12.63427734 6.98544922 12.63427734 7.46875 13.8671875 C7.76201172 14.61081543 8.05527344 15.35444336 8.35742188 16.12060547 C9 18 9 18 9 20 C3.72 20 -1.56 20 -7 20 C-5.04068712 13.14240492 -2.75665244 6.57678502 0 0 Z " fill="#EDE1C8" transform="translate(648,814)"/>
<path d="M0 0 C0.33 0 0.66 0 1 0 C1 12.21 1 24.42 1 37 C19.15 37 37.3 37 56 37 C56 37.33 56 37.66 56 38 C37.85 38 19.7 38 1 38 C1 56.15 1 74.3 1 93 C0.67 93 0.34 93 0 93 C0 74.85 0 56.7 0 38 C-5.94 38 -11.88 38 -18 38 C-18 37.67 -18 37.34 -18 37 C-12.06 37 -6.12 37 0 37 C0 24.79 0 12.58 0 0 Z " fill="#7E786A" transform="translate(623,180)"/>
<path d="M0 0 C0.33 0 0.66 0 1 0 C1 5.94 1 11.88 1 18 C19.15 18 37.3 18 56 18 C56 18.33 56 18.66 56 19 C37.85 19 19.7 19 1 19 C1 24.94 1 30.88 1 37 C0.67 37 0.34 37 0 37 C0 31.06 0 25.12 0 19 C-24.42 19 -48.84 19 -74 19 C-74 18.67 -74 18.34 -74 18 C-49.58 18 -25.16 18 0 18 C0 12.06 0 6.12 0 0 Z " fill="#7E786A" transform="translate(586,106)"/>
<path d="M0 0 C0.33 0 0.66 0 1 0 C1 5.94 1 11.88 1 18 C19.15 18 37.3 18 56 18 C56 18.33 56 18.66 56 19 C37.85 19 19.7 19 1 19 C1 37.15 1 55.3 1 74 C0.67 74 0.34 74 0 74 C0 55.85 0 37.7 0 19 C-5.94 19 -11.88 19 -18 19 C-18 18.67 -18 18.34 -18 18 C-12.06 18 -6.12 18 0 18 C0 12.06 0 6.12 0 0 Z " fill="#7E786A" transform="translate(493,459)"/>
<path d="M0 0 C0.33 0 0.66 0 1 0 C1 11.88 1 23.76 1 36 C12.88 36 24.76 36 37 36 C37 36.33 37 36.66 37 37 C25.12 37 13.24 37 1 37 C1 55.15 1 73.3 1 92 C0.67 92 0.34 92 0 92 C0 73.85 0 55.7 0 37 C-5.94 37 -11.88 37 -18 37 C-18 36.67 -18 36.34 -18 36 C-12.06 36 -6.12 36 0 36 C0 24.12 0 12.24 0 0 Z " fill="#7E786A" transform="translate(586,441)"/>
<path d="M0 0 C0.33 0 0.66 0 1 0 C1 12.21 1 24.42 1 37 C12.88 37 24.76 37 37 37 C37 37.33 37 37.66 37 38 C25.12 38 13.24 38 1 38 C1 43.94 1 49.88 1 56 C0.67 56 0.34 56 0 56 C0 50.06 0 44.12 0 38 C-5.94 38 -11.88 38 -18 38 C-18 37.67 -18 37.34 -18 37 C-12.06 37 -6.12 37 0 37 C0 24.79 0 12.58 0 0 Z " fill="#7E786A" transform="translate(586,310)"/>
<path d="M0 0 C0.33 0 0.66 0 1 0 C1 5.94 1 11.88 1 18 C6.94 18 12.88 18 19 18 C19 18.33 19 18.66 19 19 C13.06 19 7.12 19 1 19 C1 24.94 1 30.88 1 37 C0.67 37 0.34 37 0 37 C0 31.06 0 25.12 0 19 C-5.94 19 -11.88 19 -18 19 C-18 18.67 -18 18.34 -18 18 C-12.06 18 -6.12 18 0 18 C0 12.06 0 6.12 0 0 Z " fill="#7E786A" transform="translate(400,645)"/>
</svg>
